<?xml version="1.0" encoding="UTF-8"?>
<svg width="21px" height="20px" viewBox="0 0 21 20" version="1.1" xmlns="http://www.w3.org/2000/svg" xmlns:xlink="http://www.w3.org/1999/xlink">
    <title>船舶管理</title>
    <g id="自定义" stroke="none" stroke-width="1" fill="none" fill-rule="evenodd">
        <g id="主页-个人中心" transform="translate(-1489.000000, -86.000000)">
            <g id="编组-19" transform="translate(1466.000000, 64.000000)">
                <g id="船舶管理" transform="translate(21.649450, 19.682684)">
                    <rect id="矩形" fill="#D8D8D8" opacity="0" x="0" y="0" width="24" height="24"></rect>
                    <path d="M6.24190953,10.8986491 L6.24190953,5.91851786 C6.24190953,5.6853193 6.43095432,5.49627452 6.66415288,5.49627452 C7.63460877,5.4962434 8.58636242,5.2293018 9.41528691,4.72465455 L12,3.1510874 L12,3.1510874 L14.5833709,4.72414793 C15.4126707,5.22912337 16.3649,5.4962434 17.3358471,5.49627452 L17.3358471,5.49627452 L17.3358471,5.49627452 C17.5690457,5.49627452 17.7580905,5.6853193 17.7580905,5.91851786 L17.7580905,10.8986491" id="路径" stroke="#000000" stroke-width="1.5" stroke-linejoin="round"></path>
                    <path d="M12.2147052,8.08245398 L20.7075875,12.1206481 C20.9569743,12.2392265 21.0630155,12.5375212 20.9444371,12.786908 C20.9394183,12.7974633 20.9340309,12.8078393 20.9282849,12.818017 L16.6705741,20.3595597 C16.581906,20.5166146 16.4155275,20.6137455 16.2351715,20.6137455 L7.76482846,20.6137455 C7.58447253,20.6137455 7.418094,20.5166146 7.32942591,20.3595597 L3.07171509,12.818017 C2.93595567,12.5775509 3.02083727,12.2725597 3.26130346,12.1368003 C3.27148117,12.1310543 3.28185721,12.1256669 3.29241248,12.1206481 L11.7852948,8.08245398 C11.9211443,8.01786032 12.0788557,8.01786032 12.2147052,8.08245398 Z" id="多边形备份-3" stroke="#000000" stroke-width="1.5" stroke-linejoin="round"></path>
                    <line x1="12" y1="12.4775849" x2="12" y2="16.4474733" id="直线-2备份-14" stroke="#000000" stroke-width="1.25" stroke-linejoin="round"></line>
                </g>
            </g>
        </g>
    </g>
</svg>