<?xml version="1.0" standalone="no"?><!DOCTYPE svg PUBLIC "-//W3C//DTD SVG 1.1//EN" "http://www.w3.org/Graphics/SVG/1.1/DTD/svg11.dtd"><svg t="1622686164576" class="icon" viewBox="0 0 1024 1024" version="1.1" xmlns="http://www.w3.org/2000/svg" p-id="5884" xmlns:xlink="http://www.w3.org/1999/xlink" width="200" height="200"><defs><style type="text/css"></style></defs><path d="M104.835728 419.810175a44.737864 44.737864 0 0 1-2.097709-89.42602l2.097709-0.049708h325.373515c65.13833 0 117.938951-52.800621 117.938951-117.938952S495.347573 94.446602 430.209243 94.446602c-64.144155 0-116.318447 51.2-117.909126 114.946485l-0.039767 3.002408a44.737864 44.737864 0 0 1-89.475729 0C222.794563 97.826796 315.650485 4.970874 430.209243 4.970874c114.548816 0 207.41468 92.865864 207.414679 207.424621 0 114.548816-92.855922 207.41468-207.414679 207.41468H104.835728zM656.15534 675.591456c5.865631 0 11.472777 1.123417 16.602718 3.18136 77.853825 15.310291 136.599612 83.928233 136.599612 166.275728 0 93.591612-75.875417 169.457087-169.467029 169.457087S470.423612 938.640155 470.423612 845.048544a44.737864 44.737864 0 0 1 89.426019-2.107651l0.049709 2.107651a79.981359 79.981359 0 1 0 82.476738-79.951534l-1.869049-0.029826H157.258563a44.737864 44.737864 0 0 1-2.10765-89.435961l2.10765-0.039767H656.15534z" p-id="5885"></path><path d="M767.512854 89.475728c141.520777 0 256.497087 113.355806 256.497088 253.514563S909.033631 596.504854 767.502913 596.504854l-1.630447-0.039767-1.491262 0.039767H40.890408C18.312699 596.504854 0 576.472233 0 551.76699c0-23.999379 17.268816-43.584621 38.961709-44.688155L40.880466 507.029126h723.520621l1.332195 0.029825 1.789514-0.029825C859.891573 507.029126 934.524272 433.440311 934.524272 342.990291 934.524272 252.540272 859.901515 178.951456 767.502913 178.951456c-7.893748 0-15.707961 0.536854-23.422758 1.59068l-5.74633 0.894757a44.737864 44.737864 0 0 1-15.230757-88.163417A260.772039 260.772039 0 0 1 767.502913 89.475728z" p-id="5886"></path></svg>