<?xml version="1.0" encoding="UTF-8"?>
<svg width="18px" height="19px" viewBox="0 0 18 19" version="1.1" xmlns="http://www.w3.org/2000/svg" xmlns:xlink="http://www.w3.org/1999/xlink">
    <title>渔涝管理</title>
    <g id="自定义" stroke="none" stroke-width="1" fill="none" fill-rule="evenodd">
        <g id="主页-个人中心" transform="translate(-576.000000, -482.000000)">
            <g id="渔涝管理" transform="translate(573.649450, 479.682684)">
                <rect id="矩形" fill="#D8D8D8" opacity="0" x="0" y="0" width="24" height="24"></rect>
                <path d="M14.657455,15.4133961 L14.5797231,15.2214882 L14.5797231,15.2214882 C12.98907,17.6108236 11.3984169,18.8054913 9.80776386,18.8054913 C9.59634794,18.7954239 9.38493203,18.7350193 9.21378581,18.6142102 C9.44533657,18.8658958 9.70708961,19.0974466 9.99904493,19.2786603 C11.2675404,20.0840542 12.8481261,20.2249982 14.2374307,19.651155 C14.8750342,19.3961135 15.7844582,18.916233 16.9657027,18.2115133 C15.9278377,17.5372612 15.1220945,16.5605185 14.657455,15.4133961 Z" id="路径" stroke="#000000" stroke-width="1.5" stroke-linejoin="round"></path>
                <path d="M11.9309442,5.4956565 C10.562307,5.0427297 7.33403403,4.14922157 6.59676199,4.8356446 C7.5086897,7.17226257 7.29758952,7.524508 6.59676199,8.32912571 C4.9632317,9.66015039 4.01538079,11.305728 4.01538079,13.7641431 C4.01538079,16.9102015 5.52790883,19.4310816 9.04705742,19.4310816 C9.55123343,19.4310816 10.065493,19.400831 10.569669,19.3504134 C8.9361387,18.5538153 8.61405536,17.5298599 8.42187916,16.2850232 C8.03293107,13.7655808 9.42105642,12.0701634 12.5862552,11.198771 C15.4925956,11.274939 17.4300709,10.632626 18.398681,9.27183198 C19.3672912,7.91103798 19.4566396,6.09042849 18.6667262,3.81000351 C15.2346505,4.45065929 12.9893898,5.01254362 11.9309442,5.4956565 Z" id="路径" stroke="#000000" stroke-width="1.5" stroke-linejoin="round"></path>
                <circle id="椭圆形" fill="#000000" cx="16.3340126" cy="6.79126937" r="1"></circle>
            </g>
        </g>
    </g>
</svg>