<?xml version="1.0" standalone="no"?><!DOCTYPE svg PUBLIC "-//W3C//DTD SVG 1.1//EN" "http://www.w3.org/Graphics/SVG/1.1/DTD/svg11.dtd"><svg t="1622686334816" class="icon" viewBox="0 0 1024 1024" version="1.1" xmlns="http://www.w3.org/2000/svg" p-id="19976" xmlns:xlink="http://www.w3.org/1999/xlink" width="200" height="200"><defs><style type="text/css"></style></defs><path d="M830.890667 737.216c52.138667 0 88.96 17.941333 121.877333 50.858667l4.586667 4.714666c6.08 6.613333 6.485333 16.426667 1.429333 23.466667l-2.56 2.858667-27.072 24.704a17.28 17.28 0 0 1-21.76 1.216l-2.602667-2.325334-3.349333-3.370666c-20.202667-20.224-39.445333-29.589333-70.549333-29.589334-10.965333 0-15.637333 1.706667-24.661334 9.685334l-9.962666 9.28c-28.010667 26.218667-54.72 38.528-100.245334 38.528-42.773333 0-70.762667-8.789333-101.205333-27.136l-13.333333-8.170667c-10.965333-6.528-16.874667-8.554667-26.24-8.554667-9.536 0-15.210667 1.877333-25.813334 8.832l-9.6 6.592c-28.245333 19.669333-49.792 28.437333-84.565333 28.437334-31.872 0-50.666667-7.253333-72.768-24.106667l-7.616-6.058667c-12.373333-10.112-17.834667-13.077333-31.36-13.610666l-5.482667-0.085334-8.192 0.128c-6.528 0.341333-8.682667 1.6-12.778666 5.973334l-3.306667 3.690666c-20.928 23.466667-42.581333 34.069333-83.733333 34.069334-57.92 0-106.688-27.84-144.064-80.384a11.306667 11.306667 0 0 1 0.725333-13.653334l2.453333-2.154666 36.629334-23.808a21.333333 21.333333 0 0 1 26.453333 2.56c30.976 29.930667 56.917333 44.906667 77.802667 44.906666 17.578667 0 21.248-0.938667 27.434666-7.424l3.2-3.541333c20.266667-22.762667 39.829333-32.896 77.376-32.896 33.770667 0 53.589333 7.594667 76.48 25.109333l7.232 5.76c13.397333 10.986667 17.792 12.992 33.514667 12.992 15.253333 0 23.68-2.645333 37.056-11.328l10.858667-7.445333c24.96-17.322667 43.434667-25.088 72.064-25.088 21.248 0 37.589333 4.693333 55.573333 14.357333l10.133333 5.845334 11.285334 6.933333c19.776 11.904 35.136 16.725333 63.786666 16.725333 22.933333 0 33.130667-3.626667 46.208-14.933333l10.133334-9.344c24.192-22.784 44.501333-33.216 78.528-33.216z m0-128c52.138667 0 88.96 17.941333 121.877333 50.858667l4.586667 4.714666c6.08 6.613333 6.485333 16.426667 1.429333 23.466667l-2.56 2.858667-27.072 24.704a17.28 17.28 0 0 1-21.76 1.216l-2.602667-2.325334-3.349333-3.370666c-20.202667-20.224-39.445333-29.589333-70.549333-29.589334-10.965333 0-15.637333 1.706667-24.661334 9.685334l-9.962666 9.28c-28.010667 26.218667-54.72 38.528-100.245334 38.528-42.773333 0-70.762667-8.789333-101.205333-27.136l-13.333333-8.170667c-10.965333-6.528-16.874667-8.554667-26.24-8.554667-9.536 0-15.210667 1.877333-25.813334 8.832l-9.6 6.592c-28.245333 19.669333-49.792 28.437333-84.565333 28.437334-31.872 0-50.666667-7.253333-72.768-24.106667l-7.616-6.058667c-12.373333-10.112-17.834667-13.077333-31.36-13.610666l-5.482667-0.085334-8.192 0.128c-6.528 0.341333-8.682667 1.6-12.778666 5.973334l-3.306667 3.690666c-20.928 23.466667-42.581333 34.069333-83.733333 34.069334-57.92 0-106.688-27.84-144.064-80.384a11.306667 11.306667 0 0 1 0.725333-13.653334l2.453333-2.154666 36.629334-23.808a21.333333 21.333333 0 0 1 26.453333 2.56c30.976 29.930667 56.917333 44.906667 77.802667 44.906666 17.578667 0 21.248-0.938667 27.434666-7.424l3.2-3.541333c20.266667-22.762667 39.829333-32.896 77.376-32.896 33.770667 0 53.589333 7.594667 76.48 25.109333l7.232 5.76c13.397333 10.986667 17.792 12.992 33.514667 12.992 15.253333 0 23.68-2.645333 37.056-11.328l10.858667-7.445333c24.96-17.322667 43.434667-25.088 72.064-25.088 21.248 0 37.589333 4.693333 55.573333 14.357333l10.133333 5.845334 11.285334 6.933333c19.776 11.904 35.136 16.725333 63.786666 16.725333 22.933333 0 33.130667-3.626667 46.208-14.933333l10.133334-9.344c24.192-22.784 44.501333-33.216 78.528-33.216zM575.872 154.389333c181.866667 39.36 270.997333 171.861333 264.106667 387.669334a30.336 30.336 0 0 1-27.093334 29.205333l-3.2 0.170667H206.144c-38.741333 0-41.237333-57.216-2.645333-60.586667 120.192-10.432 189.013333-67.221333 186.517333-124.565333-2.304-53.013333-68.266667-86.250667-176.042667-61.44-35.050667 8.085333-52.522667-40.746667-20.288-56.746667 196.970667-97.728 339.157333-78.144 414.570667 56.874667l3.776 6.954666h2.026667c1.557333-53.994667-17.642667-94.208-61.141334-122.453333-28.266667-18.346667-10.026667-62.229333 22.933334-55.104z m-223.573333 115.456c55.402667 17.130667 110.314667 56 112.853333 113.984 1.834667 42.496-8.213333 70.656-56.277333 103.296h351.637333c-0.853333-133.077333-52.501333-196.693333-110.357333-217.664l5.098666 10.133334c9.557333 17.28 14.506667 40.192 14.506667 67.690666 0 18.346667-2.474667 32.192-7.424 41.536h-90.922667l-16-30.4c-41.450667-78.72-101.44-95.978667-203.093333-88.576z" p-id="19977"></path></svg>