<?xml version="1.0" standalone="no"?><!DOCTYPE svg PUBLIC "-//W3C//DTD SVG 1.1//EN" "http://www.w3.org/Graphics/SVG/1.1/DTD/svg11.dtd"><svg t="1622686200514" class="icon" viewBox="0 0 1091 1024" version="1.1" xmlns="http://www.w3.org/2000/svg" p-id="6275" xmlns:xlink="http://www.w3.org/1999/xlink" width="213.0859375" height="200"><defs><style type="text/css"></style></defs><path d="M527.154 32.981a42.738 42.738 0 0 1 42.6 42.602v399.35l19.79 8.658a155.837 155.837 0 1 1-124.918 0l19.79-8.658V75.72a42.738 42.738 0 0 1 42.6-42.601m0-32.982a75.857 75.857 0 0 0-75.72 75.72v377.638a188.956 188.956 0 1 0 151.165 0V75.72A75.857 75.857 0 0 0 527.154 0z" p-id="6276"></path><path d="M527.154 731.364a109.938 109.938 0 1 1 0-219.877 16.49 16.49 0 0 1 0 32.982 77.094 77.094 0 1 0 77.506 76.682 16.49 16.49 0 1 1 32.982 0 109.938 109.938 0 0 1-110.488 110.213z m0.137-651.934h-0.137q11.406 0 11.406 11.406v334.487q0 11.407-11.406 11.407h0.137q-11.406 0-11.406-11.407V90.836q0-11.406 11.406-11.406z m165.457 672.822C837.592 724.768 885.14 612.631 892.836 500.77c0.412 0 49.06 294.496-200.088 251.483z" p-id="6277"></path><path d="M982.023 734.112c65.138-209.844-85.065-287.488-85.065-287.488 63.352 63.352 109.939 259.729-109.938 378.874-163.12 88.363-368.843 96.196-514.098 1.65C106.64 718.308 0 530.727 0 530.589c41.227 278.556 280.892 510.8 570.03 492.386 515.61-33.531 521.244-576.351 521.244-576.351a732.188 732.188 0 0 1-109.251 287.488z" p-id="6278"></path></svg>