<?xml version="1.0" encoding="UTF-8"?>
<svg width="125.706904px" height="33.4334533px" viewBox="0 0 125.706904 33.4334533" version="1.1" xmlns="http://www.w3.org/2000/svg" xmlns:xlink="http://www.w3.org/1999/xlink">
    <title>编组 40</title>
    <defs>
        <polygon id="path-1" points="0 0 8 0 8 4 0 4"></polygon>
    </defs>
    <g id="自定义组件" stroke="none" stroke-width="1" fill="none" fill-rule="evenodd">
        <g id="运输船备份" transform="translate(-1151, -156)">
            <g id="编组-40" transform="translate(1151, 156)">
                <g id="编组" transform="translate(11, 11)" fill="#1FB9F9" fill-rule="nonzero">
                    <path d="M9,6.28571429 C9,6.06874665 8.83210547,5.89285714 8.625,5.89285714 C8.41789453,5.89285714 8.25,6.06874665 8.25,6.28571429 C8.25,8.32280134 6.76998047,9.99766183 4.875,10.1947902 L4.875,4.71428571 L7.125,4.71428571 C7.33125,4.71428571 7.5,4.5375 7.5,4.32142857 C7.5,4.10535714 7.33125,3.92857143 7.125,3.92857143 L4.875,3.92857143 L4.875,3.09334487 C5.52195703,2.91890402 6,2.3036529 6,1.57142857 C6,0.703558036 5.32842188,0 4.5,0 C3.67157812,0 3,0.703558036 3,1.57142857 C3,2.3036529 3.47804297,2.91890402 4.125,3.09334487 L4.125,3.92857143 L1.875,3.92857143 C1.66875,3.92857143 1.5,4.10535714 1.5,4.32142857 C1.5,4.5375 1.66875,4.71428571 1.875,4.71428571 L4.125,4.71428571 L4.125,10.1947902 C2.23001953,9.99766183 0.75,8.32280134 0.75,6.28571429 C0.75,6.06874665 0.582105469,5.89285714 0.375,5.89285714 C0.167894531,5.89285714 0,6.06874665 0,6.28571429 C0,8.88933817 2.01472266,11 4.5,11 C6.98527734,11 9,8.88933817 9,6.28571429 Z" id="路径"></path>
                </g>
                <g id="编组-18" transform="translate(0, 0)">
                    <g id="编组-35">
                        <g id="编组-34">
                            <g id="编组-13" transform="translate(2, 0)">
                                <g id="编组-23" transform="translate(0, 3)">
                                    <g id="编组-31">
                                        <g id="编组-22">
                                            <g id="编组-38">
                                                <polygon id="Fill-5" stroke="#20B9F9" points="111.006886 26 20.0003617 26 31.9934752 14 20 2 111.006886 2 123 13.9996065"></polygon>
                                                <polygon id="Fill-14" points="13.5 0 27 13.4998258 13.5 27.0000387 0 13.4998258"></polygon>
                                                <polygon id="Stroke-16" stroke="#1FB9F9" points="13.5 3.2737754 26.7262598 16.4998645 13.5 29.7263408 0.273740213 16.4998645"></polygon>
                                            </g>
                                            <g id="编组-32"></g>
                                        </g>
                                        <polygon id="Stroke-20" stroke="#1FB9F9" points="13.5 4.54747351e-13 27 13.4998024 13.5 27 0 13.4998024"></polygon>
                                    </g>
                                    <g id="编组" transform="translate(0, 3)"></g>
                                </g>
                                <g id="编组" opacity="0.519752577" transform="translate(10, 0)">
                                    <mask id="mask-2" fill="white">
                                        <use xlink:href="#path-1"></use>
                                    </mask>
                                    <g id="Clip-27"></g>
                                    <path d="M3.99683907,7.51512418e-05 C4.10517994,-0.00255514222 4.20624419,0.0508022395 4.25960611,0.138729192 L7.91974893,3.54082591 C8.03091961,3.64979521 8.02606852,3.82226731 7.90842974,3.92560027 C7.79564204,4.02479991 7.61898173,4.02479991 7.50619403,3.92560027 L3.99724332,0.663660617 L0.486271335,3.92560027 C0.364994236,4.02479991 0.18024879,4.01427874 0.073120687,3.90155187 C-0.0247095055,3.79821892 -0.0243052485,3.64378311 0.073929201,3.54082591 L3.73407202,0.138729192 C3.78581692,0.0530567768 3.88364711,7.51512418e-05 3.98915818,7.51512418e-05 L3.99683907,7.51512418e-05 Z" id="Fill-26" fill="#B8E9FD" mask="url(#mask-2)"></path>
                                </g>
                            </g>
                            <path d="M3.90902839,12.5100878 L0.663628054,16.0108964 L3.90902839,19.5104955 C4.01035368,19.6290167 4.00324969,19.8136517 3.89295095,19.9229008 C3.7893823,20.0256997 3.63010343,20.0256997 3.52653478,19.9229008 L0.141298069,16.272933 C0.00707010553,16.1906938 -0.0396666505,16.0064619 0.0366077353,15.8617371 C0.0616586366,15.8145705 0.0975524652,15.7754666 0.141298069,15.7488598 L3.52616089,12.098892 C3.62486891,11.9779521 3.79611239,11.9662612 3.9082806,12.0730915 C4.02044882,12.1795186 4.03129175,12.3641536 3.93220982,12.4850936 C3.92510584,12.4939625 3.91725406,12.5024283 3.90902839,12.5100878" id="Fill-30" fill="#78D5FC" opacity="0.519752577"></path>
                        </g>
                        <path d="M31.999907,15.9968391 C32.0025373,16.1051799 31.9491802,16.2062442 31.8612536,16.2596061 L28.459172,19.9197489 C28.3502032,20.0309196 28.1777319,20.0260685 28.0743994,19.9084297 C27.9752002,19.795642 27.9752002,19.6189817 28.0743994,19.506194 L31.3363245,15.9972433 L28.0743994,12.4862713 C27.9752002,12.3649942 27.9857213,12.1802488 28.0984477,12.0731207 C28.2017802,11.9752905 28.3562153,11.9756948 28.459172,12.0739292 L31.8612536,15.734072 C31.9469257,15.7858169 31.999907,15.8836471 31.999907,15.9891582 L31.999907,15.9968391 Z" id="Fill-24" fill="#78D5FC" opacity="0.519752577"></path>
                    </g>
                    <path d="M16.0059331,31.9999078 C15.8972633,32.0025346 15.7954612,31.9488735 15.7425403,31.8606892 L12.085744,28.4639056 C11.9714187,28.3577092 11.9714187,28.1858437 12.085744,28.0796473 C12.2000694,27.9734509 12.3850907,27.9734509 12.4994161,28.0796473 L16.0059331,31.336837 L19.5140659,28.0796473 C19.6352589,27.9805807 19.8198762,27.9910878 19.92693,28.1036634 C20.0246924,28.2068578 20.0242884,28.3610865 19.9261221,28.4639056 L16.2689218,31.8614397 C16.2172128,31.9469972 16.1194505,31.9999078 16.0140126,31.9999078 L16.0059331,31.9999078 Z" id="Fill-28" fill="#78D5FC" opacity="0.100000001"></path>
                </g>
            </g>
        </g>
    </g>
</svg>