<?xml version="1.0" standalone="no"?><!DOCTYPE svg PUBLIC "-//W3C//DTD SVG 1.1//EN" "http://www.w3.org/Graphics/SVG/1.1/DTD/svg11.dtd"><svg t="1622686579559" class="icon" viewBox="0 0 1024 1024" version="1.1" xmlns="http://www.w3.org/2000/svg" p-id="21765" xmlns:xlink="http://www.w3.org/1999/xlink" width="200" height="200"><defs><style type="text/css"></style></defs><path d="M445.1 609.5c-1.8 0-3.7 0-5.5-0.1-57.6-1.4-111.3-25.2-151-67-81.5-84.5-82.7-211.7-2.8-316.3L301 206c31-40.9 66.2-87.4 92.1-118.1 11.1-13.4 27.2-21.8 44.6-23.4 2.4-0.3 5-0.4 7.4-0.5 19.4 0.5 37.5 9.4 49.8 24.4 24.9 29.5 61.1 76 93.1 117l15.9 20.4c78.2 100.8 77.1 234-2.8 316.8-2.3 2.4-4.8 4.9-7.4 7.4-40.4 38.5-93 59.5-148.6 59.5z m-1.2-456.1c-23.4 28.8-52.4 67.1-78.5 101.4L350 275.2c-54.7 71.6-55.9 156.5-3.1 211.4 25 26.3 58.6 41.2 94.6 42.1 35.7 0.5 70.3-12.3 96.4-37.2 1.6-1.6 3.2-3.1 4.7-4.7 58.7-61 43.1-152.4-2.6-211.3l-15.9-20.4c-26.9-34.7-56.9-73.2-80.2-101.7z m-11.2-13.3l0.3 0.3-0.3-0.3z m11-35.4h0.3-0.3zM808.8 771.3c-1.3 0-2.5 0-3.8-0.1-39.8-1-76.8-17.4-104.3-46.3-55-57.1-56.2-145.9-2.9-215.9l9.4-12.3c19.4-25.5 41.3-54.5 57.6-73.8 9.4-11.4 23.1-18.6 38-19.9 2.1-0.3 4.3-0.4 6.3-0.4 16.5 0.4 32 7.9 42.4 20.7 15.3 18.1 37.6 46.7 57.3 72l10.5 13.4c53.2 68.6 52 159.5-2.8 216.4-1.4 1.5-3.2 3.3-5.1 5.1-27.8 26.6-64.2 41.1-102.6 41.1z m-0.6-273.2c-11.7 14.9-24.6 31.9-36.5 47.6l-9.5 12.5c-22.4 29.4-36.6 76-3.1 110.9 26.1 27.4 69.3 28.5 96.6 2.6l2.2-2.2c30.5-31.7 21.8-79.7-2.5-110.9L845 545c-12-15.5-25.1-32.3-36.8-46.9z m-18.8-23c0.1 0.2 0.3 0.3 0.4 0.5-0.1-0.1-0.2-0.3-0.4-0.5z m37.6-0.3zM215.7 960c-1.3 0-2.5 0-3.8-0.1-39.8-1-76.8-17.4-104.3-46.3-55-57.1-56.2-145.9-2.9-215.9l9.4-12.3c19.4-25.5 41.3-54.5 57.6-73.8 9.4-11.4 23.1-18.6 38-19.9 2.1-0.3 4.2-0.4 6.3-0.4 16.5 0.4 32 7.9 42.4 20.7 15.3 18.1 37.6 46.7 57.3 72l10.5 13.4c53.2 68.6 52 159.5-2.8 216.4-1.4 1.5-3.2 3.3-5.1 5.1-27.8 26.6-64.2 41.1-102.6 41.1z m-0.6-273.2c-11.7 14.9-24.6 31.9-36.5 47.6l-9.5 12.5c-22.4 29.4-36.6 76-3.1 110.9 26.1 27.4 69.3 28.5 96.6 2.6l2.2-2.2c30.5-31.7 21.8-79.7-2.5-110.9l-10.5-13.4c-11.9-15.7-25-32.5-36.7-47.1z m-18.8-23c0.1 0.2 0.3 0.3 0.4 0.5-0.1-0.1-0.2-0.3-0.4-0.5z m37.6-0.3c-0.1 0.1-0.2 0.2-0.3 0.4 0.1-0.2 0.2-0.3 0.3-0.4z" p-id="21766"></path></svg>