<?xml version="1.0" encoding="UTF-8"?>
<svg width="18px" height="18px" viewBox="0 0 18 18" version="1.1" xmlns="http://www.w3.org/2000/svg" xmlns:xlink="http://www.w3.org/1999/xlink">
    <title>编组 13</title>
    <g id="自定义" stroke="none" stroke-width="1" fill="none" fill-rule="evenodd">
        <g id="主页-个人中心" transform="translate(-582.000000, -677.000000)" fill-rule="nonzero">
            <g id="编组-18" transform="translate(571.000000, 658.000000)">
                <g id="编组-13" transform="translate(8.000000, 16.000000)">
                    <g id="编组-14" fill="#000000" opacity="0">
                        <rect id="矩形" x="0" y="0" width="24" height="24"></rect>
                    </g>
                    <g id="编组" transform="translate(2.000000, 2.000000)">
                        <polygon id="路径" fill-opacity="0" fill="#FFFFFF" points="0 0 20 0 20 20 0 20"></polygon>
                        <path d="M16.8632714,8.58246352 L15.3592163,10.0871443 C15.2042067,10.2421341 14.9782753,10.3026645 14.7665283,10.2459343 C14.5547812,10.1892041 14.3893879,10.023832 14.3326505,9.81211196 C14.275913,9.60039194 14.3364512,9.37448938 14.4914608,9.21949957 L15.9955159,7.71481879 C17.0186353,6.68900012 17.0186353,5.02881891 15.9955159,4.00300025 C14.9573126,3.01087942 13.3222444,3.01087942 12.2840411,4.00300025 L9.53683014,6.75067822 C9.44506005,6.83914671 9.36282358,6.93699561 9.29147042,7.042619 C8.50647528,8.0838386 8.61126419,9.54475873 9.53683014,10.4633145 C9.6963581,10.617229 9.76041478,10.8452327 9.70438015,11.0596931 C9.64834553,11.2741535 9.48093979,11.4416958 9.26650496,11.4979254 C9.05207013,11.5541551 8.82397693,11.4903216 8.66989245,11.3309593 C7.3185495,9.99732278 7.15333822,7.87320005 8.28222409,6.34670412 C8.39508956,6.17906305 8.52513022,6.02450616 8.66989245,5.88385123 L11.4171035,3.13617326 C12.3891087,2.15842982 13.8097021,1.77481631 15.1418358,2.1303558 C16.4739694,2.48589529 17.5143918,3.52634101 17.8697766,4.85835792 C18.2251615,6.19037483 17.8412857,7.61072921 16.8632714,8.58246352 L16.8632714,8.58246352 Z M10.5010938,8.63071143 C10.3859741,8.74574271 10.3212943,8.90180286 10.3212943,9.06453381 C10.3212943,9.22726475 10.3859741,9.38332491 10.5010938,9.49835618 C11.2247498,10.2134991 11.4641897,11.2852472 11.1136753,12.2403098 C10.9872403,12.6068528 10.77756,12.9391074 10.5010938,13.2109925 L7.75388282,15.9586704 C6.71567956,16.9507913 5.08061137,16.9507913 4.04240811,15.9586704 C3.01928867,14.9328518 3.01928867,13.2726706 4.04240811,12.2468519 L5.5464632,10.7421711 C5.78608726,10.5025776 5.78608726,10.1141199 5.54646319,9.8745264 C5.30683912,9.63493292 4.91833174,9.63493291 4.67870766,9.87452637 L3.17465257,11.3792072 C2.17411829,12.3464503 1.77316725,13.778093 2.12581196,15.1242156 C2.47845668,16.4703381 3.52985721,17.5216044 4.87615169,17.8742041 C6.22244616,18.2268038 7.65427172,17.8259039 8.62163838,16.8254974 L11.3688494,14.0778195 C11.7751299,13.6746558 12.0829858,13.1832688 12.2685017,12.6418306 C12.7647704,11.2443388 12.4149165,9.68609766 11.3688494,8.63480025 C11.2544546,8.51895099 11.0986396,8.45340378 10.9358205,8.45262978 C10.7730015,8.45186939 10.6165755,8.51594533 10.5010938,8.63071143 L10.5010938,8.63071143 Z" id="形状" stroke="#041E3E" stroke-width="0.5" fill="#041E3E"></path>
                    </g>
                </g>
            </g>
        </g>
    </g>
</svg>