<?xml version="1.0" encoding="UTF-8"?>
<svg width="17px" height="14px" viewBox="0 0 17 14" version="1.1" xmlns="http://www.w3.org/2000/svg" xmlns:xlink="http://www.w3.org/1999/xlink">
    <title>编组 29</title>
    <g id="自定义" stroke="none" stroke-width="1" fill="none" fill-rule="evenodd">
        <g id="主页-个人中心" transform="translate(-129.000000, -486.000000)">
            <g id="编组-29" transform="translate(127.000000, 483.000000)">
                <rect id="矩形" fill="#D8D8D8" opacity="0" x="0" y="0" width="20" height="20"></rect>
                <g id="编组" transform="translate(3.000000, 4.000000)" fill="#000000" fill-rule="nonzero" stroke="#000000" stroke-width="0.5">
                    <path d="M14.9910972,8.62301196 C14.9910972,8.60543813 14.9882857,8.58481816 14.9882857,8.56724433 L14.9793829,8.4589895 L14.9707143,8.39150598 C14.9682532,8.36010003 14.9643443,8.32882439 14.9590001,8.29777887 C14.9559544,8.27434708 14.9500972,8.2509153 14.9472858,8.22748352 C14.9414287,8.19842812 14.9386173,8.16890407 14.9325258,8.13984867 C14.9266687,8.11641688 14.9208116,8.0929851 14.9149544,8.0665072 L14.897383,7.98449597 C14.8915259,7.96106419 14.8828573,7.9348206 14.8770002,7.9111545 C14.8680974,7.88491092 14.8622402,7.85866732 14.8535717,7.8321894 C14.8444354,7.8081862 14.8366143,7.78370272 14.8301431,7.75884794 C14.8214746,7.73260435 14.8125718,7.70917257 14.8039032,7.68269465 C14.7950003,7.65926287 14.7860975,7.63583109 14.7743832,7.6095875 C14.7657147,7.58615572 14.7568119,7.55991213 14.7453319,7.53624604 C14.736429,7.51281425 14.7247148,7.48938247 14.7130005,7.46595069 C14.7012862,7.44251891 14.6926177,7.41908713 14.6809034,7.39565536 L14.6457606,7.32536002 C14.6340463,7.30192824 14.6223321,7.28154259 14.6106178,7.25811081 C14.5989036,7.23467902 14.5841436,7.21124724 14.5724293,7.18781547 C14.560715,7.16742982 14.5490008,7.14376373 14.5342408,7.12337809 C14.5197151,7.0999463 14.5051894,7.07932634 14.4904294,7.05589456 C14.4756695,7.03550891 14.4639552,7.01488894 14.4494295,6.99450329 C14.4346695,6.97107151 14.4173324,6.95045154 14.4025724,6.9300659 C14.3885991,6.91001643 14.3739077,6.89047726 14.3585268,6.87148646 C14.3428945,6.84931061 14.3263233,6.82781193 14.3088583,6.80704906 C14.2940984,6.78666341 14.2795727,6.76908957 14.2648127,6.74846961 L14.2123328,6.68707835 L14.1654757,6.63131071 C14.1479043,6.61092506 14.1272872,6.59335123 14.1097158,6.57273126 C14.0921444,6.55515743 14.0773844,6.53758359 14.0600473,6.52000976 C14.0394302,6.49938979 14.0218588,6.48181596 14.001476,6.46424213 C13.9839046,6.44690261 13.9663332,6.43214059 13.9487618,6.41456676 L13.8871448,6.36184526 C13.8695734,6.34708324 13.852002,6.32974372 13.8316192,6.31498169 C13.8114334,6.29674244 13.7898957,6.28005818 13.7671907,6.265072 C13.7496193,6.25054429 13.7290022,6.23578228 13.7114308,6.22125458 C13.691048,6.20368074 13.6673851,6.18915304 13.6470023,6.17439101 C13.6266195,6.159629 13.6088138,6.14510129 13.588431,6.13338541 C13.5650025,6.11862339 13.5443853,6.10409569 13.5209568,6.08933366 C13.500574,6.07480596 13.4799569,6.06309007 13.4595741,6.04832805 C13.4361455,6.03380034 13.412717,6.02208446 13.3892885,6.00755674 C13.3689057,5.99584086 13.3482885,5.98412496 13.32486,5.96936295 C13.3014315,5.95764706 13.2780029,5.94288503 13.2545744,5.93116915 C13.2311459,5.91945326 13.2105288,5.90773736 13.1871002,5.89602148 C13.1636717,5.88430559 13.1374318,5.8725897 13.1140032,5.86087381 C13.0905747,5.84915793 13.0671462,5.84048816 13.0465291,5.82877228 C13.0231005,5.81705639 12.9968606,5.80838663 12.973432,5.79948255 C12.9500035,5.79081279 12.926575,5.78190871 12.9031465,5.77019283 C12.8766722,5.76152307 12.8532437,5.75261899 12.8270037,5.74394923 C12.8035752,5.73504515 12.7801467,5.72614108 12.7536724,5.72051745 C12.7274325,5.71161337 12.7040039,5.70575543 12.6775297,5.69708568 C12.6541012,5.69099341 12.6278612,5.68232366 12.601387,5.67646571 C12.575147,5.67060776 12.5489071,5.66474983 12.5252442,5.65889187 C12.4990043,5.65303392 12.4755758,5.64717598 12.4491015,5.64131803 C12.4228616,5.63546008 12.3966216,5.63241395 12.3701474,5.62655601 C12.3439074,5.62093239 12.3174332,5.61788626 12.2911932,5.61202831 C12.264719,5.60898218 12.2382447,5.60312423 12.2120048,5.60031243 C12.1857648,5.59750061 12.1592906,5.59140835 12.1330506,5.59140835 C12.1065764,5.58859653 12.0803364,5.58578473 12.0538622,5.58578471 C12.0266566,5.58229803 11.9992844,5.58026439 11.9718623,5.57969245 C11.9453881,5.57688063 11.9191481,5.57688063 11.8929082,5.57688065 C11.8722911,5.57688065 11.8519082,5.57406883 11.8312911,5.57406883 C11.0079058,4.16629559 9.45028642,3.3554924 7.8250123,3.48864047 C7.25834719,2.76036718 6.38727097,2.3344967 5.46458778,2.3346253 C3.80420776,2.34001464 2.45987864,3.68476446 2.45987864,5.33975103 C2.45987864,5.87868196 2.60349555,6.39980473 2.87268936,6.85695875 C1.95616522,7.29044667 1.32054916,8.22162558 1.32054916,9.29948743 C1.32054916,10.7874054 2.53016423,12 4.02092168,12 L11.7902912,12 C13.5591453,12 15,10.5589456 15,8.78984623 C14.9941429,8.73431291 14.9941429,8.6787796 14.9910972,8.62301196 L14.9910972,8.62301196 Z M3.29744864,5.33951672 C3.29744864,4.1475421 4.26668698,3.18098121 5.45591923,3.18098121 C5.97134691,3.18098121 6.46030036,3.36538931 6.84382541,3.68757627 C5.50277628,4.12106419 4.43677811,5.20501831 4.05020734,6.59897486 L4.01506454,6.59897486 C3.91244757,6.59897486 3.81287631,6.60483281 3.71330507,6.61654869 C3.443858,6.24520223 3.29834064,5.79834049 3.29744864,5.33951672 Z M14.1069044,9.26433976 C13.8843333,10.3422016 12.9293864,11.1566903 11.7844341,11.1566903 L4.01787597,11.1566903 C2.99287773,11.1566903 2.15835345,10.321816 2.15835345,9.29667561 C2.15835345,8.27153526 2.99287773,7.43666097 4.01787597,7.43666097 L4.38687534,7.43666097 C4.58882928,7.43666097 4.76173184,7.29325849 4.79968606,7.09408836 C5.10425697,5.48315353 6.51606026,4.3174225 8.15886887,4.3174225 C9.26000983,4.3174225 10.2674367,4.83596778 10.9058642,5.70294361 C10.2030082,5.90492555 9.57934072,6.34122528 9.14872431,6.95654381 C9.01702485,7.14762505 9.06409835,7.40918077 9.25415271,7.5423383 C9.44520747,7.67405601 9.70672692,7.62697598 9.83986599,7.43689529 C10.2479233,6.84819054 10.9002613,6.47559572 11.6145772,6.42323651 C11.6321486,6.42323651 11.6525315,6.42042469 11.6672914,6.42042469 C11.7082914,6.41761288 11.7464799,6.41761288 11.7874798,6.41761289 C13.0936204,6.41761289 14.1565729,7.48071272 14.1565729,8.78703441 C14.1537614,8.95105687 14.1390015,9.11226751 14.1069044,9.26457408 L14.1069044,9.26433976 Z M5.3973479,1.67853551 C5.6285875,1.67853551 5.81601574,1.49108128 5.81601574,1.2595753 L5.81601574,0.418843056 C5.81601574,0.187522424 5.62851931,0 5.39723074,0 C5.16594218,0 4.97844575,0.187522424 4.97844575,0.418843056 L4.97844575,1.2595753 C4.97844575,1.49084697 5.165874,1.6783012 5.3973479,1.67830119 L5.3973479,1.67853551 Z M2.17592484,2.76811324 C2.25792471,2.85012448 2.36616452,2.89113009 2.47159291,2.89113009 C2.64113737,2.8901021 2.7935019,2.78740375 2.85809057,2.63061887 C2.92267924,2.47383399 2.88687253,2.29359564 2.76726097,2.1734147 L2.17311342,1.57895045 C2.00725584,1.42539526 1.74973347,1.43031158 1.58985594,1.59008532 C1.42997842,1.74985905 1.42485986,2.00741318 1.57826301,2.1734147 L2.17569056,2.76787893 L2.17592484,2.76811324 Z M1.67783427,5.39833048 C1.67783427,5.1668245 1.49040602,4.97937027 1.25916642,4.97937027 L0.418784996,4.97937027 C0.187496429,4.97937027 0,5.16689269 0,5.39821332 C0,5.62953396 0.187496429,5.81705638 0.418784996,5.81705638 L1.25916642,5.81705638 C1.49040602,5.8198682 1.67783427,5.62960215 1.67783427,5.39809617 L1.67783427,5.39833048 Z M8.32286859,2.89113166 C8.43399943,2.89143588 8.54060276,2.84711719 8.61877094,2.76811324 L9.21315278,2.1734147 C9.36662076,2.00747357 9.36160342,1.7499179 9.20178908,1.59008141 C9.04197474,1.43024491 8.78445477,1.42522687 8.61853665,1.57871613 L8.02415481,2.1734147 C7.8601551,2.33743715 7.8601551,2.60385648 8.02415481,2.76787893 C8.10896609,2.84989016 8.2174402,2.89113166 8.32286859,2.89113166 L8.32286859,2.89113166 Z" id="形状"></path>
                </g>
            </g>
        </g>
    </g>
</svg>