<?xml version="1.0" encoding="UTF-8"?>
<svg width="15px" height="16px" viewBox="0 0 15 16" version="1.1" xmlns="http://www.w3.org/2000/svg" xmlns:xlink="http://www.w3.org/1999/xlink">
    <title>消息通知</title>
    <g id="自定义" stroke="none" stroke-width="1" fill="none" fill-rule="evenodd">
        <g id="主页-个人中心" transform="translate(-1026.000000, -88.000000)">
            <g id="消息通知" transform="translate(1023.649450, 86.000000)">
                <rect id="矩形" fill="#D8D8D8" opacity="0" x="0" y="0" width="20" height="20"></rect>
                <g id="编组-55">
                    <rect id="矩形备份-45" fill="#D8D8D8" opacity="0" x="0" y="0" width="20" height="20"></rect>
                    <path d="M8.25946652,15.5471528 C8.25946652,16.4925781 9.02588514,17.2589967 9.97131041,17.2589967 C10.9167357,17.2589967 11.6831543,16.4925781 11.6831543,15.5471528" id="路径" stroke="#000000" stroke-width="1.5" stroke-linejoin="round"></path>
                    <path d="M9.97131041,4.19941765 C12.7327342,4.19941765 14.9713104,6.4379939 14.9713104,9.19941765 L14.9713104,9.61608431 L14.9713104,9.61608431 L14.9713104,11.8182887 C14.9713104,12.6425767 15.2669948,13.4395184 15.8046437,14.0643257 L15.9270899,14.2066217 C16.1072061,14.4159366 16.0835359,14.731633 15.874221,14.9117492 C15.7834976,14.989817 15.66778,15.032751 15.5480916,15.032751 L4.39452919,15.032751 C4.11838681,15.032751 3.89452919,14.8088934 3.89452919,14.532751 C3.89452919,14.4130626 3.93746319,14.297345 4.01553095,14.2066217 L4.13797708,14.0643257 C4.67562601,13.4395184 4.97131041,12.6425767 4.97131041,11.8182887 L4.97131041,9.61608431 L4.97131041,9.61608431 L4.97131041,9.19941765 C4.97131041,6.4379939 7.20988667,4.19941765 9.97131041,4.19941765 Z" id="矩形" stroke="#000000" stroke-width="1.5" stroke-linejoin="round"></path>
                    <line x1="10" y1="2.97047469" x2="10" y2="4.03252488" id="直线-2备份-4" stroke="#000000" stroke-width="1.25" stroke-linecap="round" stroke-linejoin="round"></line>
                </g>
            </g>
        </g>
    </g>
</svg>