<?xml version="1.0" standalone="no"?><!DOCTYPE svg PUBLIC "-//W3C//DTD SVG 1.1//EN" "http://www.w3.org/Graphics/SVG/1.1/DTD/svg11.dtd"><svg t="1618797354338" class="icon" viewBox="0 0 1170 1024" version="1.1" xmlns="http://www.w3.org/2000/svg" p-id="2456" xmlns:xlink="http://www.w3.org/1999/xlink" width="228.515625" height="200"><defs><style type="text/css"></style></defs><path d="M475.180709 931.705226c0 50.953376 49.08935 92.294774 109.656702 92.294774s109.656702-41.340399 109.656702-92.294774c0-61.627798-109.656702-200.123432-109.656702-200.123432S475.180709 870.078427 475.180709 931.705226zM1023.465219 402.756612a36.551901 36.551901 0 0 0 36.91771 36.551901h72.410164c20.359362 0 36.880729-16.22852 36.88073-36.551901 0-20.213438-16.19154-36.551901-36.88073-36.551901h-72.410164c-20.396343 0-36.91771 16.22852-36.91771 36.551901z" p-id="2457"></path><path d="M1008.223184 483.46444a235.652867 235.652867 0 0 0-24.015452-47.043419 219.314404 219.314404 0 0 0-362.598535-197.528787 328.971106 328.971106 0 0 0-511.879533 266.173919A219.387366 219.387366 0 0 0 0 695.028894c0 121.061743 98.21568 219.314404 219.277423 219.314404H419.62074c45.800069-120.11124 165.216671-255.866305 165.216671-255.866305s119.452584 135.755065 165.216671 255.866305h200.233374a219.460328 219.460328 0 0 0 219.277424-219.314404 219.423347 219.423347 0 0 0-161.341696-211.564454z m-222.457762-153.959553a236.127619 236.127619 0 0 0-67.3658 9.723919 330.067533 330.067533 0 0 0-40.20799-52.34265 146.209603 146.209603 0 0 1 230.243693 76.722911 236.237561 236.237561 0 0 0-122.669903-34.10318z m214.67183-108.011562l51.13628-51.209242a36.588882 36.588882 0 0 0 0.292847-51.94086 36.588882 36.588882 0 0 0-51.97784 0.255867l-51.136281 51.209242a36.551901 36.551901 0 1 0 51.684994 51.684993z m-232.94828-74.748942c20.213438 0 36.5529-16.192539 36.5529-36.91771V37.45249a36.551901 36.551901 0 1 0-73.06882 0v72.374183c0 20.395343 16.193539 36.91771 36.51592 36.91771z" p-id="2458"></path></svg>
