<?xml version="1.0" standalone="no"?><!DOCTYPE svg PUBLIC "-//W3C//DTD SVG 1.1//EN" "http://www.w3.org/Graphics/SVG/1.1/DTD/svg11.dtd"><svg t="1622686303693" class="icon" viewBox="0 0 1024 1024" version="1.1" xmlns="http://www.w3.org/2000/svg" p-id="17025" xmlns:xlink="http://www.w3.org/1999/xlink" width="200" height="200"><defs><style type="text/css"></style></defs><path d="M51.2 921.6h921.6c30.72 0 51.2 20.48 51.2 51.2s-20.48 51.2-51.2 51.2H51.2C20.48 1024 0 1003.52 0 972.8s20.48-51.2 51.2-51.2z m512-716.8v614.4c0 30.72-20.48 51.2-51.2 51.2s-51.2-20.48-51.2-51.2V204.8c0-30.72 20.48-51.2 51.2-51.2s51.2 20.48 51.2 51.2zM204.8 870.4c-87.04 0-153.6-66.56-153.6-153.6V614.4c0-30.72 20.48-51.2 51.2-51.2s51.2 20.48 51.2 51.2v102.4c0 30.72 20.48 51.2 51.2 51.2s51.2-20.48 51.2-51.2V51.2C256 20.48 276.48 0 307.2 0s51.2 20.48 51.2 51.2v665.6c0 87.04-66.56 153.6-153.6 153.6z m614.4 0c-87.04 0-153.6-66.56-153.6-153.6V51.2c0-30.72 20.48-51.2 51.2-51.2S768 20.48 768 51.2v665.6c0 30.72 20.48 51.2 51.2 51.2s51.2-20.48 51.2-51.2V614.4c0-30.72 20.48-51.2 51.2-51.2s51.2 20.48 51.2 51.2v102.4c0 87.04-66.56 153.6-153.6 153.6z" p-id="17026"></path></svg>