<?xml version="1.0" standalone="no"?><!DOCTYPE svg PUBLIC "-//W3C//DTD SVG 1.1//EN" "http://www.w3.org/Graphics/SVG/1.1/DTD/svg11.dtd"><svg t="1657782994539" class="icon" viewBox="0 0 1024 1024" version="1.1" xmlns="http://www.w3.org/2000/svg" p-id="25615" xmlns:xlink="http://www.w3.org/1999/xlink" width="16" height="16"><defs><style type="text/css">@font-face { font-family: feedback-iconfont; src: url("//at.alicdn.com/t/font_1031158_u69w8yhxdu.woff2?t=1630033759944") format("woff2"), url("//at.alicdn.com/t/font_1031158_u69w8yhxdu.woff?t=1630033759944") format("woff"), url("//at.alicdn.com/t/font_1031158_u69w8yhxdu.ttf?t=1630033759944") format("truetype"); }
</style></defs><path d="M774.101333 649.130667a109.696 109.696 0 1 1 0 219.434666H574.72a54.869333 54.869333 0 1 1 0-54.869333h199.381333a54.869333 54.869333 0 0 0 0-109.696H619.093333a1075.2 1075.2 0 0 0 49.109334-54.869333h105.898666zM527.232 128a219.434667 219.434667 0 0 1 219.008 205.824l0.298667 6.784 0.128 6.826667-0.128 7.850666c-3.114667 98.389333-64.341333 207.658667-183.722667 327.850667l-16.554667 16.341333a27.434667 27.434667 0 0 1-35.498666 2.176l-2.56-2.176-7.893334-7.68c-121.898667-120.490667-185.898667-230.058667-192-328.832l-0.426666-8.234666-0.085334-7.296A219.434667 219.434667 0 0 1 527.232 128z m-246.869333 356.565333h1.92c7.509333 18.133333 16.512 36.437333 26.922666 54.869334h-28.842666a54.826667 54.826667 0 1 0 0 109.696h105.898666c15.061333 18.090667 31.445333 36.394667 49.066667 54.869333H280.405333a109.696 109.696 0 1 1 0-219.434667z m246.869333-219.434666a82.304 82.304 0 1 0 0 164.565333 82.304 82.304 0 0 0 0-164.565333z"  p-id="25616"></path></svg>