<?xml version="1.0" encoding="UTF-8"?>
<svg width="17px" height="12px" viewBox="0 0 17 12" version="1.1" xmlns="http://www.w3.org/2000/svg" xmlns:xlink="http://www.w3.org/1999/xlink">
    <title>编组 14</title>
    <g id="自定义组件" stroke="none" stroke-width="1" fill="none" fill-rule="evenodd">
        <g id="主页-个人中心备份-2" transform="translate(-456.000000, -199.000000)" fill="#08AEBE" fill-rule="nonzero">
            <g id="编组-14" transform="translate(456.000000, 199.000000)">
                <g id="编组" transform="translate(10.000000, 0.000000)">
                    <path d="M0.815325471,12 C0.583400172,12 0.428783319,11.9247868 0.274166453,11.7743603 C-0.0350672796,11.4735074 0.0422411535,11.022228 0.351474886,10.7213751 L5.2992145,6.35900771 C5.45383136,6.20858124 5.5311398,6.05815478 5.5311398,5.90772833 C5.5311398,5.75730186 5.45383136,5.6068754 5.2992145,5.45644894 L0.274166453,1.31972126 C-0.0350672796,1.01886833 -0.112375699,0.567588951 0.19685802,0.266736036 C0.506091752,-0.0341168916 0.969942338,-0.10933011 1.27917606,0.191522804 L6.22691568,4.32825048 C6.69076627,4.70431663 7,5.30602249 7,5.90772833 C7,6.50943417 6.7680747,7.03592678 6.30422412,7.48720616 L1.35648449,11.8495735 C1.20186762,11.9247868 0.969942338,12 0.815325471,12 L0.815325471,12 Z" id="路径"></path>
                </g>
                <g id="编组" fill-opacity="0.6">
                    <path d="M0.815325471,12 C0.583400172,12 0.428783319,11.9247868 0.274166453,11.7743603 C-0.0350672796,11.4735074 0.0422411535,11.022228 0.351474886,10.7213751 L5.2992145,6.35900771 C5.45383136,6.20858124 5.5311398,6.05815478 5.5311398,5.90772833 C5.5311398,5.75730186 5.45383136,5.6068754 5.2992145,5.45644894 L0.274166453,1.31972126 C-0.0350672796,1.01886833 -0.112375699,0.567588951 0.19685802,0.266736036 C0.506091752,-0.0341168916 0.969942338,-0.10933011 1.27917606,0.191522804 L6.22691568,4.32825048 C6.69076627,4.70431663 7,5.30602249 7,5.90772833 C7,6.50943417 6.7680747,7.03592678 6.30422412,7.48720616 L1.35648449,11.8495735 C1.20186762,11.9247868 0.969942338,12 0.815325471,12 L0.815325471,12 Z" id="路径"></path>
                </g>
            </g>
        </g>
    </g>
</svg>