<?xml version="1.0" encoding="UTF-8"?>
<svg width="100px" height="131px" viewBox="0 0 100 131" version="1.1" xmlns="http://www.w3.org/2000/svg" xmlns:xlink="http://www.w3.org/1999/xlink">
    <title>编组 23</title>
    <defs>
        <filter x="-33.0%" y="-124.1%" width="166.1%" height="348.3%" filterUnits="objectBoundingBox" id="filter-1">
            <feGaussianBlur stdDeviation="3.6" in="SourceGraphic"></feGaussianBlur>
        </filter>
        <radialGradient cx="37.7797608%" cy="28.3622943%" fx="37.7797608%" fy="28.3622943%" r="64.3500788%" id="radialGradient-2">
            <stop stop-color="#F2F4FC" offset="0%"></stop>
            <stop stop-color="#8194C3" offset="100%"></stop>
        </radialGradient>
        <radialGradient cx="50%" cy="26.6626659%" fx="50%" fy="26.6626659%" r="79.916798%" id="radialGradient-3">
            <stop stop-color="#6F7072" offset="0%"></stop>
            <stop stop-color="#3C3D3E" offset="100%"></stop>
        </radialGradient>
        <linearGradient x1="43.7482736%" y1="0%" x2="63.1397867%" y2="90.7279317%" id="linearGradient-4">
            <stop stop-color="#F6F8FD" offset="0%"></stop>
            <stop stop-color="#D5DEFA" offset="71.0522769%"></stop>
            <stop stop-color="#E2EAFF" offset="100%"></stop>
        </linearGradient>
        <linearGradient x1="58.1422982%" y1="94.0307549%" x2="50%" y2="34.2316094%" id="linearGradient-5">
            <stop stop-color="#CED8EE" offset="0%"></stop>
            <stop stop-color="#A0AFD8" offset="100%"></stop>
        </linearGradient>
        <radialGradient cx="23.1447412%" cy="15.5993221%" fx="23.1447412%" fy="15.5993221%" r="136.162017%" gradientTransform="translate(0.231447,0.155993),scale(1.000000,0.634474),rotate(66.116511),translate(-0.231447,-0.155993)" id="radialGradient-6">
            <stop stop-color="#EDF1FF" offset="0%"></stop>
            <stop stop-color="#CDD9F8" offset="82.4295297%"></stop>
            <stop stop-color="#DBE4FD" offset="100%"></stop>
        </radialGradient>
        <path d="M1.29114614,1.73266738 C0.960326023,2.44715287 0.623876809,5.68080631 2.02874189,8.93684782 C3.43360697,12.1928893 4.7297377,13.1919604 5.46198768,13.4324007 C6.19423767,13.6728409 8.63500369,12.606708 8.96196225,11.8575556 C9.28892081,11.1084033 9.29186329,8.11873154 7.9322935,5.45024781 C6.57272371,2.78176409 4.2374442,0.7683749 3.38371323,0.651069477 C2.52998226,0.533764055 1.62196627,1.01818189 1.29114614,1.73266738 Z" id="path-7"></path>
        <filter x="-94.9%" y="-32.3%" width="289.8%" height="164.6%" filterUnits="objectBoundingBox" id="filter-9">
            <feGaussianBlur stdDeviation="0.8" in="SourceGraphic"></feGaussianBlur>
        </filter>
        <path d="M3.03780596,7.63266738 C2.70698584,8.34715287 2.37053663,11.5808063 3.77540171,14.8368478 C5.18026679,18.0928893 6.47639752,19.0919604 7.2086475,19.3324007 C7.94089749,19.5728409 10.3816635,18.506708 10.7086221,17.7575556 C11.0355806,17.0084033 11.0385231,14.0187315 9.67895332,11.3502478 C8.31938353,8.68176409 5.98410402,6.6683749 5.13037305,6.55106948 C4.27664208,6.43376405 3.36862609,6.91818189 3.03780596,7.63266738 Z" id="path-10"></path>
        <filter x="-94.9%" y="-32.3%" width="289.8%" height="164.6%" filterUnits="objectBoundingBox" id="filter-12">
            <feGaussianBlur stdDeviation="0.8" in="SourceGraphic"></feGaussianBlur>
        </filter>
        <radialGradient cx="50%" cy="50%" fx="50%" fy="50%" r="57.2115385%" gradientTransform="translate(0.500000,0.500000),scale(1.000000,0.873950),rotate(90.000000),scale(1.000000,0.859962),translate(-0.500000,-0.500000)" id="radialGradient-13">
            <stop stop-color="#F2F4FE" offset="0%"></stop>
            <stop stop-color="#DCE2F8" offset="50.4618877%"></stop>
            <stop stop-color="#B4C7F8" offset="100%"></stop>
        </radialGradient>
        <path d="M15.6,35.7 C24.2156421,35.7 31.2,27.7082828 31.2,17.85 C31.2,7.99171722 30.2999456,0 15.6,0 C0.900054449,0 0,7.99171722 0,17.85 C0,27.7082828 6.9843579,35.7 15.6,35.7 Z" id="path-14"></path>
        <radialGradient cx="50%" cy="50%" fx="50%" fy="50%" r="57.2115385%" gradientTransform="translate(0.500000,0.500000),scale(1.000000,0.873950),rotate(90.000000),scale(1.000000,0.859962),translate(-0.500000,-0.500000)" id="radialGradient-16">
            <stop stop-color="#F2F4FE" stop-opacity="0" offset="0%"></stop>
            <stop stop-color="#DCE2F8" stop-opacity="0" offset="81.9705448%"></stop>
            <stop stop-color="#E4ECFF" offset="100%"></stop>
        </radialGradient>
        <path d="M15.6,35.7 C24.2156421,35.7 31.2,27.7082828 31.2,17.85 C31.2,7.99171722 30.2999456,0 15.6,0 C0.900054449,0 0,7.99171722 0,17.85 C0,27.7082828 6.9843579,35.7 15.6,35.7 Z" id="path-17"></path>
        <filter x="-35.8%" y="-49.0%" width="171.6%" height="198.0%" filterUnits="objectBoundingBox" id="filter-19">
            <feGaussianBlur stdDeviation="2.4" in="SourceGraphic"></feGaussianBlur>
        </filter>
        <filter x="-42.0%" y="-200.0%" width="184.0%" height="500.0%" filterUnits="objectBoundingBox" id="filter-20">
            <feGaussianBlur stdDeviation="1.4" in="SourceGraphic"></feGaussianBlur>
        </filter>
        <filter x="-7.3%" y="-24.5%" width="114.5%" height="149.0%" filterUnits="objectBoundingBox" id="filter-21">
            <feGaussianBlur stdDeviation="1.2" in="SourceGraphic"></feGaussianBlur>
        </filter>
        <radialGradient cx="36.1421493%" cy="31.237386%" fx="36.1421493%" fy="31.237386%" r="79.9482749%" id="radialGradient-22">
            <stop stop-color="#FF3232" offset="0%"></stop>
            <stop stop-color="#CF1818" offset="53.0759736%"></stop>
            <stop stop-color="#DB2B2B" offset="100%"></stop>
        </radialGradient>
        <linearGradient x1="50%" y1="0%" x2="50%" y2="100%" id="linearGradient-23">
            <stop stop-color="#E1ECFF" offset="0%"></stop>
            <stop stop-color="#B5C4E4" offset="52.9613598%"></stop>
            <stop stop-color="#C8D2E5" offset="100%"></stop>
        </linearGradient>
        <radialGradient cx="50%" cy="42.8495626%" fx="50%" fy="42.8495626%" r="57.1504374%" gradientTransform="translate(0.500000,0.428496),scale(0.751321,1.000000),rotate(90.000000),scale(1.000000,1.646838),translate(-0.500000,-0.428496)" id="radialGradient-24">
            <stop stop-color="#F1F4FF" offset="0%"></stop>
            <stop stop-color="#E4EAFC" offset="62.0242724%"></stop>
            <stop stop-color="#B9C7EA" offset="87.8220548%"></stop>
            <stop stop-color="#D6DEF7" offset="100%"></stop>
        </radialGradient>
        <path d="M40.166485,0 C81.5880155,0 79.4762075,23.6815483 79.4762075,37.05 C79.4762075,50.4184517 72.8242477,60.2972895 40.2493159,59.7 C7.67438419,59.1027105 0.00413625392,48.3826353 0.00413625392,37.05 C0.00413625392,25.7173647 -1.25504544,0 40.166485,0 Z" id="path-25"></path>
        <filter x="-20.8%" y="-45.9%" width="141.7%" height="191.8%" filterUnits="objectBoundingBox" id="filter-27">
            <feGaussianBlur stdDeviation="4.5" in="SourceGraphic"></feGaussianBlur>
        </filter>
        <radialGradient cx="50%" cy="44.522696%" fx="50%" fy="44.522696%" r="60.7632818%" gradientTransform="translate(0.500000,0.445227),scale(0.534520,1.000000),rotate(90.000000),scale(1.000000,2.050429),translate(-0.500000,-0.445227)" id="radialGradient-28">
            <stop stop-color="#183CDC" offset="0%"></stop>
            <stop stop-color="#192D86" offset="73.3494754%"></stop>
            <stop stop-color="#192767" offset="100%"></stop>
        </radialGradient>
        <linearGradient x1="50%" y1="0%" x2="50%" y2="105.585583%" id="linearGradient-29">
            <stop stop-color="#B7C2D8" offset="0%"></stop>
            <stop stop-color="#FFFFFF" offset="100%"></stop>
        </linearGradient>
        <path d="M14.9146873,14.7120969 C20.3868735,5.2789745 34.5452954,13.4314224 44.7634315,13.4314224 C54.9815677,13.4314224 70.7651786,5.20471434 75.440358,14.6831216 C80.1155373,24.1615289 83.1873546,37.8415181 76.7868735,43.5 C70.3863924,49.1584819 20.2802267,49.95 13.4868735,43.5 C6.69352024,37.05 9.44250114,24.1452193 14.9146873,14.7120969 Z" id="path-30"></path>
        <filter x="-0.7%" y="-1.3%" width="101.4%" height="102.6%" filterUnits="objectBoundingBox" id="filter-31">
            <feGaussianBlur stdDeviation="0.5" in="SourceAlpha" result="shadowBlurInner1"></feGaussianBlur>
            <feOffset dx="0" dy="0" in="shadowBlurInner1" result="shadowOffsetInner1"></feOffset>
            <feComposite in="shadowOffsetInner1" in2="SourceAlpha" operator="arithmetic" k2="-1" k3="1" result="shadowInnerInner1"></feComposite>
            <feColorMatrix values="0 0 0 0 0.0567430579   0 0 0 0 0.18878536   0 0 0 0 0.637115036  0 0 0 1 0" type="matrix" in="shadowInnerInner1"></feColorMatrix>
        </filter>
        <path d="M66.8961997,34.0664069 C66.8641342,34.1011017 66.8307153,34.1345206 66.7960206,34.166586 L66.4481398,34.4881029 C66.3856022,34.5459011 66.3199884,34.5984589 66.2518562,34.6457763 L64.20099,34.6457763 C64.1328579,34.5984589 64.0672441,34.5459011 64.0047064,34.4881029 L62.7713884,33.3476638 L67.302795,33.3484186 C67.2273741,33.6079658 67.0921229,33.8544183 66.8961997,34.0664069 Z M66.6643884,31.4016638 L66.7960206,31.5227945 C67.1411701,31.8417871 67.3331691,32.2645052 67.3683852,32.6987192 L62.0683884,32.6986638 L60.6653884,31.4016638 L66.6643884,31.4016638 Z M64.5593884,29.4566638 L65.9633884,30.7536638 L59.9643884,30.7536638 L58.7820095,29.6612049 C58.7130633,29.5974837 58.6502282,29.5296236 58.5935333,29.4583597 L64.5593884,29.4566638 Z M63.8593884,27.5116638 L63.1577174,28.1606638 L63.8583884,28.8086638 L58.2659468,28.8093892 C58.2091276,28.5985486 58.1911082,28.3790698 58.2123398,28.1624072 C58.1907053,27.9454384 58.2082413,27.7249452 58.2654442,27.512507 L63.8593884,27.5116638 Z M65.9633884,25.5666638 L64.5613884,26.8626638 L58.593696,26.8625817 C58.6215689,26.8275356 58.6509458,26.7932621 58.6818304,26.7598451 C58.7138958,26.7251503 58.7473147,26.6917314 58.7820095,26.659666 L59.9643884,25.5666638 L65.9633884,25.5666638 Z M66.8961997,24.6978973 C66.8641342,24.7325921 66.8307153,24.766011 66.7960206,24.7980764 L66.6653884,24.9176638 L60.6663884,24.9176638 L62.0693884,23.6206638 L67.3685422,23.6210443 C67.3374788,24.0090554 67.180892,24.3898606 66.8961997,24.6978973 Z M66.4481398,21.832768 L66.7960206,22.1542849 C67.0453235,22.3846946 67.2147243,22.6692202 67.302854,22.9731059 L62.7703884,22.9726638 L64.0047064,21.832768 C64.6944506,21.1952957 65.7583956,21.1952957 66.4481398,21.832768 Z" id="path-32"></path>
        <filter x="-32.7%" y="-22.0%" width="165.5%" height="141.7%" filterUnits="objectBoundingBox" id="filter-33">
            <feOffset dx="0" dy="0" in="SourceAlpha" result="shadowOffsetOuter1"></feOffset>
            <feGaussianBlur stdDeviation="1" in="shadowOffsetOuter1" result="shadowBlurOuter1"></feGaussianBlur>
            <feColorMatrix values="0 0 0 0 0.78820503   0 0 0 0 0.94484506   0 0 0 0 1  0 0 0 1 0" type="matrix" in="shadowBlurOuter1"></feColorMatrix>
        </filter>
        <path d="M27.1368735,34.5 C25.9105538,34.5 24.8217191,33.9113571 24.1375087,33.0012108 L30.1362383,33.0012108 C29.4520279,33.9113571 28.3631931,34.5 27.1368735,34.5 Z M30.5050281,32.4005632 L23.7687188,32.4005632 C23.5871722,32.0307962 23.4647233,31.6267616 23.4136889,31.2007761 L30.8600581,31.2007761 C30.8090236,31.6267616 30.6865747,32.0307962 30.5050281,32.4005632 Z M30.8868735,29.4 L30.8868735,30.6 L23.3868735,30.6 L23.3868735,29.4 L30.8868735,29.4 Z M30.8868735,27.6 L30.8868735,28.8 L23.3868735,28.8 L23.3868735,27.6 L30.8868735,27.6 Z M30.8868735,25.8 L30.8868735,27 L23.3868735,27 L23.3868735,25.8 L30.8868735,25.8 Z M30.8601778,25.2002248 L23.4135691,25.2002248 C23.4644863,24.7742498 23.5868126,24.3702114 23.768235,24.0004225 L30.5055119,24.0004225 C30.6869344,24.3702114 30.8092606,24.7742498 30.8601778,25.2002248 Z M27.1368735,21.9 C28.3636415,21.9 29.4528241,22.4890734 30.1369886,23.3997877 L24.1367583,23.3997877 C24.8209229,22.4890734 25.9101054,21.9 27.1368735,21.9 Z" id="path-34"></path>
        <filter x="-80.0%" y="-47.6%" width="260.0%" height="195.2%" filterUnits="objectBoundingBox" id="filter-35">
            <feMorphology radius="0.5" operator="dilate" in="SourceAlpha" result="shadowSpreadOuter1"></feMorphology>
            <feOffset dx="0" dy="0" in="shadowSpreadOuter1" result="shadowOffsetOuter1"></feOffset>
            <feGaussianBlur stdDeviation="1.5" in="shadowOffsetOuter1" result="shadowBlurOuter1"></feGaussianBlur>
            <feColorMatrix values="0 0 0 0 0.78820503   0 0 0 0 0.94484506   0 0 0 0 1  0 0 0 1 0" type="matrix" in="shadowBlurOuter1"></feColorMatrix>
        </filter>
        <linearGradient x1="38.9398206%" y1="0%" x2="67.8219054%" y2="36.0597713%" id="linearGradient-36">
            <stop stop-color="#FFFFFF" offset="0%"></stop>
            <stop stop-color="#FFFFFF" stop-opacity="0" offset="100%"></stop>
        </linearGradient>
    </defs>
    <g id="控件备份" stroke="none" stroke-width="1" fill="none" fill-rule="evenodd">
        <g id="编组-23" transform="translate(0.017609, 0.044567)">
            <ellipse id="椭圆形" fill="#4A86FF" style="mix-blend-mode: multiply;" opacity="0.200000003" filter="url(#filter-1)" cx="53.7192642" cy="115.405433" rx="16.35" ry="4.35"></ellipse>
            <g id="胳膊" transform="translate(64.980322, 55.702945)">
                <circle id="椭圆形" fill="url(#radialGradient-2)" cx="5.60206891" cy="20.8524879" r="1.6"></circle>
                <rect id="矩形" fill="#293B48" x="2.78894238" y="19.0524879" width="1.8" height="4" rx="0.9"></rect>
                <g id="编组" transform="translate(16.967159, 16.194585) rotate(-32.000000) translate(-16.967159, -16.194585) translate(3.467159, 6.694585)">
                    <circle id="椭圆形备份-2" fill="url(#radialGradient-3)" cx="5.92836035" cy="8.96411624" r="1.3"></circle>
                    <path d="M2.77251982,4.27093621 C2.29267117,4.61061112 2.62266254,6.39077777 2.26122382,7.01917155 C1.89978511,7.64756532 1.25520519,8.42914654 1.7186398,9.20592613 C2.1820744,9.98270572 2.22389503,10.1305494 2.77251982,10.1305494 C3.3211446,10.1305494 5.16845502,9.62513928 5.02456106,8.93293031 C4.95716833,8.60873428 5.09298979,7.39011339 4.34923524,5.8976815 C4.034302,5.26573054 3.25236846,3.93126129 2.77251982,4.27093621 Z" id="路径-2" fill="url(#linearGradient-4)" transform="translate(3.294795, 7.173500) rotate(-43.000000) translate(-3.294795, -7.173500) "></path>
                    <g id="编组-2" transform="translate(15.713386, 9.822052) rotate(-69.000000) translate(-15.713386, -9.822052) translate(9.713386, 0.322052)">
                        <path d="M6.76646671,10.3 C8.97560571,10.3 10.7664667,12.090861 10.7664667,14.3 C10.7664667,15.6819073 10.0656998,16.9001417 9.00014028,17.6187288 C8.86775626,17.7083093 8.7083733,17.7630021 8.53621616,17.7630021 C8.09691861,17.7630021 7.74079759,17.4068811 7.74079759,16.9675835 C7.74079759,16.6866865 7.8864019,16.4397973 8.10625307,16.2982731 C8.74457843,15.8625653 9.16646671,15.1305513 9.16646671,14.3 C9.16646671,12.9745166 8.09195011,11.9 6.76646671,11.9 C5.44098331,11.9 4.36646671,12.9745166 4.36646671,14.3 C4.36646671,15.1607145 4.81955499,15.9156046 5.50023265,16.3391714 C5.71687819,16.4848253 5.86204492,16.7313944 5.86204492,17.011869 C5.86204492,17.4511665 5.50592389,17.8072875 5.06662635,17.8072875 C4.91310166,17.8072875 4.76973571,17.7637928 4.64817867,17.6884536 C3.51694503,16.984882 2.76646671,15.7300828 2.76646671,14.3 C2.76646671,12.090861 4.55732771,10.3 6.76646671,10.3 Z" id="形状结合" fill="url(#linearGradient-5)" transform="translate(6.766467, 14.053644) rotate(-11.000000) translate(-6.766467, -14.053644) "></path>
                        <mask id="mask-8" fill="white">
                            <use xlink:href="#path-7" transform="translate(5.071237, 7.050265) rotate(8.000000) translate(-5.071237, -7.050265) "></use>
                        </mask>
                        <use id="蒙版" fill="url(#radialGradient-6)" transform="translate(5.071237, 7.050265) rotate(8.000000) translate(-5.071237, -7.050265) " xlink:href="#path-7"></use>
                        <ellipse id="椭圆形" fill="#FFFFFF" filter="url(#filter-9)" mask="url(#mask-8)" transform="translate(4.830703, 4.314342) rotate(-16.000000) translate(-4.830703, -4.314342) " cx="4.83070251" cy="4.31434207" rx="1.2642358" ry="3.71434207"></ellipse>
                    </g>
                </g>
            </g>
            <g id="胳膊" transform="translate(31.883837, 87.556212) scale(-1, 1) translate(-31.883837, -87.556212) translate(24.390659, 75.355433)">
                <circle id="椭圆形" fill="url(#radialGradient-2)" cx="2.81312653" cy="2" r="1.6"></circle>
                <circle id="椭圆形备份-2" fill="url(#radialGradient-3)" cx="4.71312653" cy="5.9" r="1.3"></circle>
                <path d="M8.51312653,16.2 C10.7222655,16.2 12.5131265,17.990861 12.5131265,20.2 C12.5131265,21.5819073 11.8123596,22.8001417 10.7468001,23.5187288 C10.6144161,23.6083093 10.4550331,23.6630021 10.282876,23.6630021 C9.84357843,23.6630021 9.48745741,23.3068811 9.48745741,22.8675835 C9.48745741,22.5866865 9.63306172,22.3397973 9.85291289,22.1982731 C10.4912382,21.7625653 10.9131265,21.0305513 10.9131265,20.2 C10.9131265,18.8745166 9.83860993,17.8 8.51312653,17.8 C7.18764313,17.8 6.11312653,18.8745166 6.11312653,20.2 C6.11312653,21.0607145 6.56621481,21.8156046 7.24689247,22.2391714 C7.46353801,22.3848253 7.60870474,22.6313944 7.60870474,22.911869 C7.60870474,23.3511665 7.25258371,23.7072875 6.81328617,23.7072875 C6.65976148,23.7072875 6.51639553,23.6637928 6.39483849,23.5884536 C5.26360485,22.884882 4.51312653,21.6300828 4.51312653,20.2 C4.51312653,17.990861 6.30398753,16.2 8.51312653,16.2 Z" id="形状结合" fill="url(#linearGradient-5)" transform="translate(8.513127, 19.953644) rotate(-11.000000) translate(-8.513127, -19.953644) "></path>
                <path d="M3.62857954,0.254484634 C3.1487309,0.594159546 3.47872226,2.3743262 3.11728355,3.00271997 C2.75584483,3.63111375 2.11126492,4.41269497 2.57469952,5.18947455 C3.03813412,5.96625414 3.07995476,6.11409783 3.62857954,6.11409783 C4.17720433,6.11409783 6.02451475,5.60868771 5.88062078,4.91647874 C5.81322805,4.5922827 5.94904952,3.37366181 5.20529496,1.88122992 C4.89036172,1.24927897 4.10842819,-0.0851902787 3.62857954,0.254484634 Z" id="路径-2" fill="url(#linearGradient-4)"></path>
                <rect id="矩形" fill="#293B48" x="0" y="0" width="1.8" height="4" rx="0.9"></rect>
                <mask id="mask-11" fill="white">
                    <use xlink:href="#path-10" transform="translate(6.817897, 12.950265) rotate(8.000000) translate(-6.817897, -12.950265) "></use>
                </mask>
                <use id="蒙版" fill="url(#radialGradient-6)" transform="translate(6.817897, 12.950265) rotate(8.000000) translate(-6.817897, -12.950265) " xlink:href="#path-10"></use>
                <ellipse id="椭圆形" fill="#FFFFFF" filter="url(#filter-12)" mask="url(#mask-11)" transform="translate(6.577362, 10.214342) rotate(-16.000000) translate(-6.577362, -10.214342) " cx="6.57736233" cy="10.2143421" rx="1.2642358" ry="3.71434207"></ellipse>
            </g>
            <g id="身子" transform="translate(37.969264, 65.155433)">
                <mask id="mask-15" fill="white">
                    <use xlink:href="#path-14"></use>
                </mask>
                <use id="蒙版" fill="url(#radialGradient-13)" xlink:href="#path-14"></use>
                <mask id="mask-18" fill="white">
                    <use xlink:href="#path-17"></use>
                </mask>
                <use id="蒙版" fill="url(#radialGradient-16)" xlink:href="#path-17"></use>
                <ellipse id="椭圆形" fill="#FFFFFF" filter="url(#filter-19)" mask="url(#mask-18)" cx="55.45" cy="15.45" rx="10.05" ry="7.35"></ellipse>
                <ellipse id="椭圆形备份-4" fill="#FFFFFF" filter="url(#filter-20)" mask="url(#mask-18)" cx="15.45" cy="35.15" rx="5" ry="1.05"></ellipse>
                <path d="M-10.6,3.4 L38.9,3.4 L38.9,18.1 C31.1810776,13.2 23.1152095,10.75 14.7023954,10.75 C6.28958142,10.75 -2.14455039,13.2 -10.6,18.1 L-10.6,3.4 Z" id="矩形" fill="#8295C4" filter="url(#filter-21)" mask="url(#mask-18)" transform="translate(14.150000, 10.750000) rotate(-9.000000) translate(-14.150000, -10.750000) "></path>
            </g>
            <g id="天线" transform="translate(46.099507, 8.683679) rotate(-9.000000) translate(-46.099507, -8.683679) translate(41.099507, 0.683679)">
                <rect id="矩形" fill="#BBCAE8" transform="translate(2.450000, 11.300000) rotate(22.000000) translate(-2.450000, -11.300000) " x="1.4" y="7.4" width="2.1" height="7.8"></rect>
                <circle id="椭圆形" fill="url(#radialGradient-22)" cx="5.0617408" cy="4.9437854" r="4.8"></circle>
            </g>
            <g id="脸" transform="translate(49.156236, 42.990730) rotate(-9.000000) translate(-49.156236, -42.990730) translate(4.117072, 13.127878)">
                <path d="M9.99145346,17.8403202 C6.95945579,17.4514508 4.90309992,18.0067016 3.82238586,19.5060725 C2.20131477,21.7551288 -7.27595761e-12,26.3752246 -7.27595761e-12,31.7126123 C-7.27595761e-12,37.05 0.38621705,40.2877326 2.10430146,41.3551851 C3.82238586,42.4226376 6.80103131,42.700518 7.20775275,42.0278515 C7.47890038,41.5794072 8.40680062,33.5168968 9.99145346,17.8403202 Z" id="路径" fill="url(#linearGradient-23)"></path>
                <path d="M90.0783269,17.8403202 C87.0463293,17.4514508 84.9899734,18.0067016 83.9092593,19.5060725 C82.2881882,21.7551288 80.0868735,26.3752246 80.0868735,31.7126123 C80.0868735,37.05 80.4730905,40.2877326 82.1911749,41.3551851 C83.9092593,42.4226376 86.8879048,42.700518 87.2946262,42.0278515 C87.5657738,41.5794072 88.4936741,33.5168968 90.0783269,17.8403202 Z" id="路径备份" fill="url(#linearGradient-23)" transform="translate(85.082600, 30.056266) scale(-1, 1) translate(-85.082600, -30.056266) "></path>
                <g id="椭圆形" transform="translate(5.030309, 0.000000)">
                    <mask id="mask-26" fill="white">
                        <use xlink:href="#path-25"></use>
                    </mask>
                    <use id="蒙版" fill="url(#radialGradient-24)" xlink:href="#path-25"></use>
                    <ellipse fill="#FFFFFF" filter="url(#filter-27)" mask="url(#mask-26)" cx="39.9565645" cy="15" rx="32.4" ry="14.7"></ellipse>
                </g>
                <g id="眼镜">
                    <use fill="url(#radialGradient-28)" fill-rule="evenodd" xlink:href="#path-30"></use>
                    <use fill="black" fill-opacity="1" filter="url(#filter-31)" xlink:href="#path-30"></use>
                    <path stroke="url(#linearGradient-29)" stroke-width="1.2" d="M59.1064689,11.6583743 C62.9796042,10.886666 66.7185099,10.354796 69.7312846,11.0164951 C71.9637349,11.5068107 73.7802677,12.6738321 74.9022556,14.9485381 C77.4566629,20.1273153 79.5315888,26.5765603 79.7967045,32.2503216 C80.0032046,36.6696441 79.1246273,40.6324033 76.3894664,43.0504807 C73.5089589,45.5970548 61.6419177,47.0714188 48.9845394,47.3830813 L47.9704186,47.4055322 C47.6319199,47.4121878 47.2930146,47.418015 46.9538581,47.4230119 L45.9357906,47.4355101 L45.9357906,47.4355101 L44.9171487,47.4430166 C44.5776093,47.4446857 44.2381295,47.4455211 43.8988648,47.4455211 C30.4178508,47.4455211 17.1413725,46.1424288 13.899999,43.0648825 C10.9129116,40.22877 9.8773412,36.0857543 10.1009888,31.5765206 C10.3731727,26.0886883 12.5124679,20.0488476 15.4336827,15.0131679 C16.8593103,12.5556274 18.9178436,11.3794475 21.3486777,10.9559327 C24.7460437,10.3640228 28.8396659,11.1956007 32.9962778,12.1243463 L32.9962778,12.1243463 L33.6819404,12.2782638 C34.7749379,12.5247709 35.4324365,12.6730811 36.0892135,12.816903 L36.0892135,12.816903 L36.7747365,12.9652515 C39.5499916,13.5579071 42.2722299,14.0314224 44.7634315,14.0314224 C47.7641933,14.0314224 51.2396095,13.335727 54.7772656,12.5747784 L54.7772656,12.5747784 L56.9469742,12.1069638 L58.0281017,11.8784288 Z" stroke-linejoin="square"></path>
                </g>
                <g id="右眼">
                    <use fill="black" fill-opacity="1" filter="url(#filter-33)" xlink:href="#path-32"></use>
                    <use fill="#C7F0FF" fill-rule="evenodd" xlink:href="#path-32"></use>
                </g>
                <g id="左眼">
                    <use fill="black" fill-opacity="1" filter="url(#filter-35)" xlink:href="#path-34"></use>
                    <use fill="#C7F0FF" fill-rule="evenodd" xlink:href="#path-34"></use>
                </g>
                <path d="M23.3868735,23.4 C28.7858469,16.5 34.5663606,16.7739951 26.8368735,13.8 C19.1073864,10.8260049 14.3868735,19.9113132 14.3868735,27.45 C14.3868735,34.9886868 17.9879001,30.3 23.3868735,23.4 Z" id="椭圆形" fill="url(#linearGradient-36)" opacity="0.5"></path>
                <path d="M68.3868735,23.4 C73.7858469,16.5 79.5663606,16.7739951 71.8368735,13.8 C64.1073864,10.8260049 59.3868735,19.9113132 59.3868735,27.45 C59.3868735,34.9886868 62.9879001,30.3 68.3868735,23.4 Z" id="椭圆形备份" fill="url(#linearGradient-36)" opacity="0.5" transform="translate(67.485220, 22.263249) scale(-1, 1) translate(-67.485220, -22.263249) "></path>
            </g>
        </g>
    </g>
</svg>