<?xml version="1.0" encoding="UTF-8"?>
<svg width="451px" height="543px" viewBox="0 0 451 543" version="1.1" xmlns="http://www.w3.org/2000/svg" xmlns:xlink="http://www.w3.org/1999/xlink">
    <title>编组 19</title>
    <defs>
        <radialGradient cx="36.1421493%" cy="31.237386%" fx="36.1421493%" fy="31.237386%" r="79.9482749%" id="radialGradient-1">
            <stop stop-color="#FF3232" offset="0%"></stop>
            <stop stop-color="#CF1818" offset="53.0759736%"></stop>
            <stop stop-color="#DB2B2B" offset="100%"></stop>
        </radialGradient>
        <linearGradient x1="50%" y1="0%" x2="50%" y2="100%" id="linearGradient-2">
            <stop stop-color="#E1ECFF" offset="0%"></stop>
            <stop stop-color="#B5C4E4" offset="52.9613598%"></stop>
            <stop stop-color="#C8D2E5" offset="100%"></stop>
        </linearGradient>
        <radialGradient cx="50%" cy="42.8495626%" fx="50%" fy="42.8495626%" r="57.1504374%" gradientTransform="translate(0.500000,0.428496),scale(0.751321,1.000000),rotate(90.000000),scale(1.000000,1.646838),translate(-0.500000,-0.428496)" id="radialGradient-3">
            <stop stop-color="#F1F4FF" offset="0%"></stop>
            <stop stop-color="#E4EAFC" offset="62.0242724%"></stop>
            <stop stop-color="#B9C7EA" offset="87.8220548%"></stop>
            <stop stop-color="#D6DEF7" offset="100%"></stop>
        </radialGradient>
        <path d="M200.832425,-2.13162821e-14 C407.940078,-2.13162821e-14 397.381037,118.407742 397.381037,185.25 C397.381037,252.092258 364.121238,301.486448 201.24658,298.5 C38.371921,295.513552 0.0206812696,241.913176 0.0206812696,185.25 C0.0206812696,128.586824 -6.27522722,-2.13162821e-14 200.832425,-2.13162821e-14 Z" id="path-4"></path>
        <filter x="-20.8%" y="-45.9%" width="141.7%" height="191.8%" filterUnits="objectBoundingBox" id="filter-6">
            <feGaussianBlur stdDeviation="22.5" in="SourceGraphic"></feGaussianBlur>
        </filter>
        <radialGradient cx="50%" cy="44.522696%" fx="50%" fy="44.522696%" r="60.7632818%" gradientTransform="translate(0.500000,0.445227),scale(0.534520,1.000000),rotate(90.000000),scale(1.000000,2.050429),translate(-0.500000,-0.445227)" id="radialGradient-7">
            <stop stop-color="#183CDC" offset="0%"></stop>
            <stop stop-color="#192D86" offset="73.3494754%"></stop>
            <stop stop-color="#192767" offset="100%"></stop>
        </radialGradient>
        <linearGradient x1="50%" y1="0%" x2="50%" y2="105.585583%" id="linearGradient-8">
            <stop stop-color="#B7C2D8" offset="0%"></stop>
            <stop stop-color="#FFFFFF" offset="100%"></stop>
        </linearGradient>
        <path d="M74.5734365,73.5604844 C101.934367,26.3948725 172.726477,67.1571121 223.817158,67.1571121 C274.907838,67.1571121 353.825893,26.0235717 377.20179,73.4156082 C400.577686,120.807645 415.936773,189.207591 383.934367,217.5 C351.931962,245.792409 101.401133,249.75 67.4343673,217.5 C33.4676012,185.25 47.2125057,120.726096 74.5734365,73.5604844 Z" id="path-9"></path>
        <filter x="-1.0%" y="-1.8%" width="102.0%" height="103.7%" filterUnits="objectBoundingBox" id="filter-10">
            <feGaussianBlur stdDeviation="2.5" in="SourceAlpha" result="shadowBlurInner1"></feGaussianBlur>
            <feOffset dx="0" dy="2" in="shadowBlurInner1" result="shadowOffsetInner1"></feOffset>
            <feComposite in="shadowOffsetInner1" in2="SourceAlpha" operator="arithmetic" k2="-1" k3="1" result="shadowInnerInner1"></feComposite>
            <feColorMatrix values="0 0 0 0 0.0567430579   0 0 0 0 0.18878536   0 0 0 0 0.637115036  0 0 0 1 0" type="matrix" in="shadowInnerInner1"></feColorMatrix>
        </filter>
        <path d="M318.684367,172.5 C312.550405,172.5 307.104397,169.554515 303.683587,165.000789 L333.685148,165.000789 C330.264338,169.554515 324.81833,172.5 318.684367,172.5 Z M335.526064,162.000936 L301.842671,162.000936 C300.935015,160.151734 300.322949,158.131169 300.068081,156.000848 L337.300653,156.000848 C337.045786,158.131169 336.433719,160.151734 335.526064,162.000936 Z M337.434367,147 L337.434367,153 L299.934367,153 L299.934367,147 L337.434367,147 Z M337.434367,138 L337.434367,144 L299.934367,144 L299.934367,138 L337.434367,138 Z M337.434367,129 L337.434367,135 L299.934367,135 L299.934367,129 L337.434367,129 Z M337.300773,126.000152 L300.067962,126.000152 C300.322711,123.869849 300.934652,121.849286 301.842179,120.000068 L335.526556,120.000068 C336.434083,121.849286 337.046023,123.869849 337.300773,126.000152 Z M318.684367,109.5 C324.81878,109.5 330.265137,112.445917 333.685901,117.000214 L303.682834,117.000214 C307.103597,112.445917 312.549955,109.5 318.684367,109.5 Z" id="path-11"></path>
        <filter x="-68.0%" y="-40.5%" width="236.0%" height="181.0%" filterUnits="objectBoundingBox" id="filter-12">
            <feMorphology radius="1.5" operator="dilate" in="SourceAlpha" result="shadowSpreadOuter1"></feMorphology>
            <feOffset dx="0" dy="0" in="shadowSpreadOuter1" result="shadowOffsetOuter1"></feOffset>
            <feGaussianBlur stdDeviation="7" in="shadowOffsetOuter1" result="shadowBlurOuter1"></feGaussianBlur>
            <feColorMatrix values="0 0 0 0 0.78820503   0 0 0 0 0.94484506   0 0 0 0 1  0 0 0 1 0" type="matrix" in="shadowBlurOuter1"></feColorMatrix>
        </filter>
        <path d="M135.684367,172.5 C129.550405,172.5 124.104397,169.554515 120.683587,165.000789 L150.685148,165.000789 C147.264338,169.554515 141.81833,172.5 135.684367,172.5 Z M152.526064,162.000936 L118.842671,162.000936 C117.935015,160.151734 117.322949,158.131169 117.068081,156.000848 L154.300653,156.000848 C154.045786,158.131169 153.433719,160.151734 152.526064,162.000936 Z M154.434367,147 L154.434367,153 L116.934367,153 L116.934367,147 L154.434367,147 Z M154.434367,138 L154.434367,144 L116.934367,144 L116.934367,138 L154.434367,138 Z M154.434367,129 L154.434367,135 L116.934367,135 L116.934367,129 L154.434367,129 Z M154.300773,126.000152 L117.067962,126.000152 C117.322711,123.869849 117.934652,121.849286 118.842179,120.000068 L152.526556,120.000068 C153.434083,121.849286 154.046023,123.869849 154.300773,126.000152 Z M135.684367,109.5 C141.81878,109.5 147.265137,112.445917 150.685901,117.000214 L120.682834,117.000214 C124.103597,112.445917 129.549955,109.5 135.684367,109.5 Z" id="path-13"></path>
        <filter x="-68.0%" y="-40.5%" width="236.0%" height="181.0%" filterUnits="objectBoundingBox" id="filter-14">
            <feMorphology radius="1.5" operator="dilate" in="SourceAlpha" result="shadowSpreadOuter1"></feMorphology>
            <feOffset dx="0" dy="0" in="shadowSpreadOuter1" result="shadowOffsetOuter1"></feOffset>
            <feGaussianBlur stdDeviation="7" in="shadowOffsetOuter1" result="shadowBlurOuter1"></feGaussianBlur>
            <feColorMatrix values="0 0 0 0 0.78820503   0 0 0 0 0.94484506   0 0 0 0 1  0 0 0 1 0" type="matrix" in="shadowBlurOuter1"></feColorMatrix>
        </filter>
        <linearGradient x1="38.9398206%" y1="0%" x2="67.8219054%" y2="36.0597713%" id="linearGradient-15">
            <stop stop-color="#FFFFFF" offset="0%"></stop>
            <stop stop-color="#FFFFFF" stop-opacity="0" offset="100%"></stop>
        </linearGradient>
        <radialGradient cx="37.7797608%" cy="28.3622943%" fx="37.7797608%" fy="28.3622943%" r="64.3500788%" id="radialGradient-16">
            <stop stop-color="#F2F4FC" offset="0%"></stop>
            <stop stop-color="#8194C3" offset="100%"></stop>
        </radialGradient>
        <radialGradient cx="50%" cy="26.6626659%" fx="50%" fy="26.6626659%" r="79.916798%" id="radialGradient-17">
            <stop stop-color="#6F7072" offset="0%"></stop>
            <stop stop-color="#3C3D3E" offset="100%"></stop>
        </radialGradient>
        <linearGradient x1="58.1422982%" y1="94.0307549%" x2="50%" y2="34.2316094%" id="linearGradient-18">
            <stop stop-color="#CED8EE" offset="0%"></stop>
            <stop stop-color="#A0AFD8" offset="100%"></stop>
        </linearGradient>
        <linearGradient x1="43.7482736%" y1="0%" x2="63.1397867%" y2="90.7279317%" id="linearGradient-19">
            <stop stop-color="#F6F8FD" offset="0%"></stop>
            <stop stop-color="#D5DEFA" offset="71.0522769%"></stop>
            <stop stop-color="#E2EAFF" offset="100%"></stop>
        </linearGradient>
        <radialGradient cx="23.1447412%" cy="15.5993221%" fx="23.1447412%" fy="15.5993221%" r="136.162017%" gradientTransform="translate(0.231447,0.155993),scale(1.000000,0.634474),rotate(66.116511),translate(-0.231447,-0.155993)" id="radialGradient-20">
            <stop stop-color="#EDF1FF" offset="0%"></stop>
            <stop stop-color="#CDD9F8" offset="82.4295297%"></stop>
            <stop stop-color="#DBE4FD" offset="100%"></stop>
        </radialGradient>
        <path d="M16.1337417,38.4257763 C14.4796411,41.9982038 12.797395,58.1664709 19.8217204,74.4466785 C26.8460458,90.7268861 33.3266995,95.7222412 36.9879494,96.9244427 C40.6491994,98.1266441 52.8530294,92.7959792 54.4878222,89.0502174 C56.1226151,85.3044557 56.1373274,70.3560971 49.3394785,57.0136785 C42.5416296,43.6712599 30.865232,33.6043139 26.5965772,33.0177868 C22.3279223,32.4312597 17.7878423,34.8533489 16.1337417,38.4257763 Z" id="path-21"></path>
        <filter x="-94.9%" y="-32.3%" width="289.8%" height="164.6%" filterUnits="objectBoundingBox" id="filter-23">
            <feGaussianBlur stdDeviation="4" in="SourceGraphic"></feGaussianBlur>
        </filter>
        <path d="M16.1337417,38.4257763 C14.4796411,41.9982038 12.797395,58.1664709 19.8217204,74.4466785 C26.8460458,90.7268861 33.3266995,95.7222412 36.9879494,96.9244427 C40.6491994,98.1266441 52.8530294,92.7959792 54.4878222,89.0502174 C56.1226151,85.3044557 56.1373274,70.3560971 49.3394785,57.0136785 C42.5416296,43.6712599 30.865232,33.6043139 26.5965772,33.0177868 C22.3279223,32.4312597 17.7878423,34.8533489 16.1337417,38.4257763 Z" id="path-24"></path>
        <filter x="-94.9%" y="-32.3%" width="289.8%" height="164.6%" filterUnits="objectBoundingBox" id="filter-26">
            <feGaussianBlur stdDeviation="4" in="SourceGraphic"></feGaussianBlur>
        </filter>
        <radialGradient cx="50%" cy="50%" fx="50%" fy="50%" r="57.2115385%" gradientTransform="translate(0.500000,0.500000),scale(1.000000,0.873950),rotate(90.000000),scale(1.000000,0.859962),translate(-0.500000,-0.500000)" id="radialGradient-27">
            <stop stop-color="#F2F4FE" offset="0%"></stop>
            <stop stop-color="#DCE2F8" offset="50.4618877%"></stop>
            <stop stop-color="#B4C7F8" offset="100%"></stop>
        </radialGradient>
        <path d="M78,178.5 C121.07821,178.5 156,138.541414 156,89.25 C156,39.9585861 151.499728,0 78,0 C4.50027225,0 0,39.9585861 0,89.25 C0,138.541414 34.9217895,178.5 78,178.5 Z" id="path-28"></path>
        <radialGradient cx="50%" cy="50%" fx="50%" fy="50%" r="57.2115385%" gradientTransform="translate(0.500000,0.500000),scale(1.000000,0.873950),rotate(90.000000),scale(1.000000,0.859962),translate(-0.500000,-0.500000)" id="radialGradient-30">
            <stop stop-color="#F2F4FE" stop-opacity="0" offset="0%"></stop>
            <stop stop-color="#DCE2F8" stop-opacity="0" offset="81.9705448%"></stop>
            <stop stop-color="#E4ECFF" offset="100%"></stop>
        </radialGradient>
        <path d="M78,178.5 C121.07821,178.5 156,138.541414 156,89.25 C156,39.9585861 151.499728,0 78,0 C4.50027225,0 0,39.9585861 0,89.25 C0,138.541414 34.9217895,178.5 78,178.5 Z" id="path-31"></path>
        <filter x="-35.8%" y="-49.0%" width="171.6%" height="198.0%" filterUnits="objectBoundingBox" id="filter-33">
            <feGaussianBlur stdDeviation="12" in="SourceGraphic"></feGaussianBlur>
        </filter>
        <filter x="-42.0%" y="-200.0%" width="184.0%" height="500.0%" filterUnits="objectBoundingBox" id="filter-34">
            <feGaussianBlur stdDeviation="7" in="SourceGraphic"></feGaussianBlur>
        </filter>
        <filter x="-7.3%" y="-24.5%" width="114.5%" height="149.0%" filterUnits="objectBoundingBox" id="filter-35">
            <feGaussianBlur stdDeviation="6" in="SourceGraphic"></feGaussianBlur>
        </filter>
    </defs>
    <g id="控件备份" stroke="none" stroke-width="1" fill="none" fill-rule="evenodd">
        <g id="编组-19">
            <g id="编组-18">
                <g id="天线" transform="translate(200.934367, 0.000000)">
                    <rect id="矩形" fill="#BBCAE8" x="18" y="39" width="10.5" height="39"></rect>
                    <circle id="椭圆形" fill="url(#radialGradient-1)" cx="24" cy="24" r="24"></circle>
                </g>
                <g id="脸" transform="translate(0.000000, 64.500000)">
                    <path d="M49.9572673,89.2016008 C34.7972789,87.257254 24.5154996,90.0335079 19.1119293,97.5303623 C11.0065739,108.775644 0,131.876123 0,158.563062 C0,185.25 1.93108525,201.438663 10.5215073,206.775925 C19.1119293,212.113188 34.0051565,213.50259 36.0387638,210.139258 C37.3945019,207.897036 42.0340031,167.584484 49.9572673,89.2016008 Z" id="路径" fill="url(#linearGradient-2)"></path>
                    <path d="M450.391635,89.2016008 C435.231646,87.257254 424.949867,90.0335079 419.546297,97.5303623 C411.440941,108.775644 400.434367,131.876123 400.434367,158.563062 C400.434367,185.25 402.365453,201.438663 410.955875,206.775925 C419.546297,212.113188 434.439524,213.50259 436.473131,210.139258 C437.828869,207.897036 442.46837,167.584484 450.391635,89.2016008 Z" id="路径备份" fill="url(#linearGradient-2)" transform="translate(425.413001, 150.281331) scale(-1, 1) translate(-425.413001, -150.281331) "></path>
                    <g id="椭圆形" transform="translate(25.151545, 0.000000)">
                        <mask id="mask-5" fill="white">
                            <use xlink:href="#path-4"></use>
                        </mask>
                        <use id="蒙版" fill="url(#radialGradient-3)" xlink:href="#path-4"></use>
                        <ellipse fill="#FFFFFF" filter="url(#filter-6)" mask="url(#mask-5)" cx="199.782822" cy="75" rx="162" ry="73.5"></ellipse>
                    </g>
                    <g id="眼镜">
                        <use fill="url(#radialGradient-7)" fill-rule="evenodd" xlink:href="#path-9"></use>
                        <use fill="black" fill-opacity="1" filter="url(#filter-10)" xlink:href="#path-9"></use>
                        <path stroke="url(#linearGradient-8)" stroke-width="6" d="M287.410648,59.9619956 C307.900203,55.6135989 328.0822,51.9512426 344.578882,54.3441873 C357.589658,56.2314799 368.229385,62.00685 374.511278,74.7426903 C387.283314,100.636576 397.657944,132.882801 398.983523,161.251608 C400.016023,183.348221 395.623137,203.162016 381.947332,215.252404 C365.624456,229.68299 291.588064,237.227605 219.494324,237.227605 C152.089254,237.227605 85.7068626,230.712144 69.4999952,215.324412 C54.564558,201.14385 49.386706,180.428772 50.5049441,157.882603 C51.8658635,130.443442 62.5623396,100.244238 77.1684136,75.0658394 C84.5517681,62.3381864 95.3319762,56.4887042 108.052552,54.5668717 C124.95845,52.0127182 145.151624,56.1699704 165.627174,60.764841 L167.609459,61.2106615 C168.600942,61.4340442 169.592859,61.6579776 170.584869,61.8817511 C171.004554,61.9764218 171.424203,62.0710844 171.845405,62.1660516 L171.845405,62.1660516 L175.281359,62.9388257 C192.098991,66.7073445 208.799568,70.1571121 223.817158,70.1571121 C238.41715,70.1571121 255.266517,66.8593192 272.460228,63.1793247 L274.80678,62.675412 C275.980945,62.422545 277.156308,62.1685173 278.332265,61.9142531 C280.685502,61.4054386 283.041252,60.8952263 285.39441,60.3917299 Z" stroke-linejoin="square"></path>
                    </g>
                    <g id="右眼">
                        <use fill="black" fill-opacity="1" filter="url(#filter-12)" xlink:href="#path-11"></use>
                        <use fill="#C7F0FF" fill-rule="evenodd" xlink:href="#path-11"></use>
                    </g>
                    <g id="左眼">
                        <use fill="black" fill-opacity="1" filter="url(#filter-14)" xlink:href="#path-13"></use>
                        <use fill="#C7F0FF" fill-rule="evenodd" xlink:href="#path-13"></use>
                    </g>
                    <path d="M116.934367,117 C143.929234,82.5 172.831803,83.8699757 134.184367,69 C95.5369318,54.1300243 71.9343673,99.5565658 71.9343673,137.25 C71.9343673,174.943434 89.9395004,151.5 116.934367,117 Z" id="椭圆形" fill="url(#linearGradient-15)" opacity="0.5"></path>
                    <path d="M341.934367,117 C368.929234,82.5 397.831803,83.8699757 359.184367,69 C320.536932,54.1300243 296.934367,99.5565658 296.934367,137.25 C296.934367,174.943434 314.9395,151.5 341.934367,117 Z" id="椭圆形备份" fill="url(#linearGradient-15)" opacity="0.5" transform="translate(337.426102, 111.316243) scale(-1, 1) translate(-337.426102, -111.316243) "></path>
                </g>
            </g>
            <g id="胳膊" transform="translate(295.989655, 414.737561)">
                <circle id="椭圆形" fill="url(#radialGradient-16)" cx="15.0103446" cy="10.2624394" r="8"></circle>
                <circle id="椭圆形备份-2" fill="url(#radialGradient-17)" cx="24.5103446" cy="29.7624394" r="6.5"></circle>
                <path d="M43.5103446,81.2624394 C54.5560396,81.2624394 63.5103446,90.2167444 63.5103446,101.262439 C63.5103446,108.172009 60.0064759,114.263207 54.678635,117.856136 L54.6680317,117.838958 C54.0170644,118.303893 53.2200245,118.57745 52.3590918,118.57745 C50.1626041,118.57745 48.3819989,116.796845 48.3819989,114.600357 C48.3819989,113.195009 49.1109152,111.959909 50.2113026,111.252502 L50.195439,111.229348 C53.4010593,109.074995 55.5103446,105.415042 55.5103446,101.262439 C55.5103446,94.6350224 50.1377616,89.2624394 43.5103446,89.2624394 C36.8829276,89.2624394 31.5103446,94.6350224 31.5103446,101.262439 C31.5103446,105.567428 33.7772771,109.342947 37.1825343,111.460387 L37.1698049,111.480944 C38.2641184,112.189483 38.9882356,113.421071 38.9882356,114.821784 C38.9882356,117.018272 37.2076305,118.798877 35.0111427,118.798877 C34.2431725,118.798877 33.5260417,118.581207 32.9180805,118.204197 L32.9069011,118.223383 C27.263241,114.687693 23.5103446,108.413334 23.5103446,101.262439 C23.5103446,90.2167444 32.4646496,81.2624394 43.5103446,81.2624394 Z" id="形状结合" fill="url(#linearGradient-18)" transform="translate(43.510345, 100.030658) rotate(-11.000000) translate(-43.510345, -100.030658) "></path>
                <path d="M19.0876096,1.53486257 C16.6883664,3.23323713 18.3383232,12.1340704 16.5311296,15.2760393 C14.723936,18.4180082 11.5010365,22.3259142 13.8182095,26.2098122 C16.1353825,30.0937101 16.3444857,30.8329286 19.0876096,30.8329286 C21.8307335,30.8329286 31.0672856,28.3058779 30.3478158,24.8448331 C30.0108522,23.2238529 30.6899595,17.1307485 26.9711867,9.66858902 C25.3965205,6.50883424 21.4868528,-0.163511989 19.0876096,1.53486257 Z" id="路径-2" fill="url(#linearGradient-19)"></path>
                <rect id="矩形" fill="#293B48" x="0.9447119" y="0.262439404" width="9" height="20" rx="4.5"></rect>
                <mask id="mask-22" fill="white">
                    <use xlink:href="#path-21" transform="translate(35.034198, 65.013766) rotate(8.000000) translate(-35.034198, -65.013766) "></use>
                </mask>
                <use id="蒙版" fill="url(#radialGradient-20)" transform="translate(35.034198, 65.013766) rotate(8.000000) translate(-35.034198, -65.013766) " xlink:href="#path-21"></use>
                <ellipse id="椭圆形" fill="#FFFFFF" filter="url(#filter-23)" mask="url(#mask-22)" transform="translate(33.831524, 51.334150) rotate(-16.000000) translate(-33.831524, -51.334150) " cx="33.8315235" cy="51.3341498" rx="6.32117898" ry="18.5717104"></ellipse>
            </g>
            <g id="胳膊" transform="translate(117.917836, 476.237561) scale(-1, 1) translate(-117.917836, -476.237561) translate(79.917836, 414.737561)">
                <circle id="椭圆形" fill="url(#radialGradient-16)" cx="15.0103446" cy="10.2624394" r="8"></circle>
                <circle id="椭圆形备份-2" fill="url(#radialGradient-17)" cx="24.5103446" cy="29.7624394" r="6.5"></circle>
                <path d="M43.5103446,81.2624394 C54.5560396,81.2624394 63.5103446,90.2167444 63.5103446,101.262439 C63.5103446,108.172009 60.0064759,114.263207 54.678635,117.856136 L54.6680317,117.838958 C54.0170644,118.303893 53.2200245,118.57745 52.3590918,118.57745 C50.1626041,118.57745 48.3819989,116.796845 48.3819989,114.600357 C48.3819989,113.195009 49.1109152,111.959909 50.2113026,111.252502 L50.195439,111.229348 C53.4010593,109.074995 55.5103446,105.415042 55.5103446,101.262439 C55.5103446,94.6350224 50.1377616,89.2624394 43.5103446,89.2624394 C36.8829276,89.2624394 31.5103446,94.6350224 31.5103446,101.262439 C31.5103446,105.567428 33.7772771,109.342947 37.1825343,111.460387 L37.1698049,111.480944 C38.2641184,112.189483 38.9882356,113.421071 38.9882356,114.821784 C38.9882356,117.018272 37.2076305,118.798877 35.0111427,118.798877 C34.2431725,118.798877 33.5260417,118.581207 32.9180805,118.204197 L32.9069011,118.223383 C27.263241,114.687693 23.5103446,108.413334 23.5103446,101.262439 C23.5103446,90.2167444 32.4646496,81.2624394 43.5103446,81.2624394 Z" id="形状结合" fill="url(#linearGradient-18)" transform="translate(43.510345, 100.030658) rotate(-11.000000) translate(-43.510345, -100.030658) "></path>
                <path d="M19.0876096,1.53486257 C16.6883664,3.23323713 18.3383232,12.1340704 16.5311296,15.2760393 C14.723936,18.4180082 11.5010365,22.3259142 13.8182095,26.2098122 C16.1353825,30.0937101 16.3444857,30.8329286 19.0876096,30.8329286 C21.8307335,30.8329286 31.0672856,28.3058779 30.3478158,24.8448331 C30.0108522,23.2238529 30.6899595,17.1307485 26.9711867,9.66858902 C25.3965205,6.50883424 21.4868528,-0.163511989 19.0876096,1.53486257 Z" id="路径-2" fill="url(#linearGradient-19)"></path>
                <rect id="矩形" fill="#293B48" x="0.9447119" y="0.262439404" width="9" height="20" rx="4.5"></rect>
                <mask id="mask-25" fill="white">
                    <use xlink:href="#path-24" transform="translate(35.034198, 65.013766) rotate(8.000000) translate(-35.034198, -65.013766) "></use>
                </mask>
                <use id="蒙版" fill="url(#radialGradient-20)" transform="translate(35.034198, 65.013766) rotate(8.000000) translate(-35.034198, -65.013766) " xlink:href="#path-24"></use>
                <ellipse id="椭圆形" fill="#FFFFFF" filter="url(#filter-26)" mask="url(#mask-25)" transform="translate(33.831524, 51.334150) rotate(-16.000000) translate(-33.831524, -51.334150) " cx="33.8315235" cy="51.3341498" rx="6.32117898" ry="18.5717104"></ellipse>
            </g>
            <g id="身子" transform="translate(147.934367, 364.000000)">
                <mask id="mask-29" fill="white">
                    <use xlink:href="#path-28"></use>
                </mask>
                <use id="蒙版" fill="url(#radialGradient-27)" xlink:href="#path-28"></use>
                <mask id="mask-32" fill="white">
                    <use xlink:href="#path-31"></use>
                </mask>
                <use id="蒙版" fill="url(#radialGradient-30)" xlink:href="#path-31"></use>
                <ellipse id="椭圆形" fill="#FFFFFF" filter="url(#filter-33)" mask="url(#mask-32)" cx="77.25" cy="77.25" rx="50.25" ry="36.75"></ellipse>
                <ellipse id="椭圆形备份-4" fill="#FFFFFF" filter="url(#filter-34)" mask="url(#mask-32)" cx="77.25" cy="175.75" rx="25" ry="5.25"></ellipse>
                <path d="M-53,23 L194.5,23 L194.5,96.5 C155.905388,72 115.576047,59.75 73.5119772,59.75 C31.4479071,59.75 -10.722752,72 -53,96.5 L-53,23 Z" id="矩形" fill="#8295C4" filter="url(#filter-35)" mask="url(#mask-32)"></path>
            </g>
        </g>
    </g>
</svg>