<?xml version="1.0" standalone="no"?><!DOCTYPE svg PUBLIC "-//W3C//DTD SVG 1.1//EN" "http://www.w3.org/Graphics/SVG/1.1/DTD/svg11.dtd"><svg t="1636537366099" class="icon" viewBox="0 0 1024 1024" version="1.1" xmlns="http://www.w3.org/2000/svg" p-id="5564" xmlns:xlink="http://www.w3.org/1999/xlink" width="48" height="48"><defs><style type="text/css"></style></defs><path d="M928.922574 489.927285 96.025007 489.927285c-17.253966 0-31.233352 13.979386-31.233352 31.233352 0 17.253966 13.980409 31.233352 31.233352 31.233352l832.897567 0c17.253966 0 31.233352-13.980409 31.233352-31.233352C960.155926 503.906671 946.17654 489.927285 928.922574 489.927285z" p-id="5565"></path><path d="M262.60493 135.945205c-74.627674 0-135.345548 60.718897-135.345548 135.345548l0 120.603799c0 17.253966 13.979386 31.233352 31.233352 31.233352s31.233352-13.980409 31.233352-31.233352L189.726086 271.291776c0-40.181141 32.697703-72.878844 72.878844-72.878844 17.253966 0 31.233352-13.979386 31.233352-31.233352S279.857872 135.945205 262.60493 135.945205z" p-id="5566"></path><path d="M762.343675 135.945205c-17.253966 0-31.233352 13.980409-31.233352 31.233352s13.979386 31.233352 31.233352 31.233352c40.181141 0 72.878844 32.697703 72.878844 72.878844l0 120.603799c0 17.253966 13.979386 31.233352 31.233352 31.233352 17.253966 0 31.233352-13.980409 31.233352-31.233352L897.689223 271.291776C897.689223 196.664102 836.970326 135.945205 762.343675 135.945205z" p-id="5567"></path><path d="M388.880915 843.908342 262.60493 843.908342c-40.181141 0-72.878844-32.697703-72.878844-72.878844L189.726086 650.436956c0-17.253966-13.980409-31.233352-31.233352-31.233352s-31.233352 13.979386-31.233352 31.233352l0 120.593566c0 74.627674 60.718897 135.345548 135.345548 135.345548L388.880915 906.376069c17.253966 0 31.233352-13.979386 31.233352-31.233352C420.11529 857.888751 406.134881 843.908342 388.880915 843.908342z" p-id="5568"></path><path d="M866.455871 619.203604c-17.253966 0-31.233352 13.979386-31.233352 31.233352l0 120.593566c0 40.181141-32.697703 72.878844-72.878844 72.878844L636.066667 843.909365c-17.253966 0-31.233352 13.979386-31.233352 31.233352 0 17.253966 13.979386 31.233352 31.233352 31.233352l126.277008 0c74.627674 0 135.345548-60.718897 135.345548-135.345548L897.689223 650.436956C897.689223 633.18299 883.708813 619.203604 866.455871 619.203604z" p-id="5569"></path><path d="M401.000953 119.982652c-17.253966 0-31.233352 13.979386-31.233352 31.233352l0 30.470989c0 17.253966 13.980409 31.233352 31.233352 31.233352s31.233352-13.979386 31.233352-31.233352L432.234305 151.217027C432.234305 133.963061 418.253896 119.982652 401.000953 119.982652z" p-id="5570"></path><path d="M623.947651 119.982652c-17.253966 0-31.233352 13.979386-31.233352 31.233352l0 30.470989c0 17.253966 13.979386 31.233352 31.233352 31.233352 17.253966 0 31.233352-13.979386 31.233352-31.233352L655.181003 151.217027C655.181003 133.963061 641.200594 119.982652 623.947651 119.982652z" p-id="5571"></path><path d="M426.009534 303.826773c11.214413 18.047028 41.96988 48.588625 86.157265 48.588625 43.963281 0 75.105558-30.318516 86.573751-48.223305 9.222035-14.396895 5.03262-33.358759-9.241478-42.762943-14.31503-9.404184-33.592073-5.38873-43.159986 8.764618-0.132006 0.193405-13.614066 19.754926-34.172287 19.754926-19.98824 0-32.423457-18.09717-33.266661-19.368116-9.160637-14.427594-28.264741-18.799158-42.834574-9.770528C421.413865 269.918499 416.910295 289.175075 426.009534 303.826773z" p-id="5572"></path></svg>