<?xml version="1.0" standalone="no"?><!DOCTYPE svg PUBLIC "-//W3C//DTD SVG 1.1//EN" "http://www.w3.org/Graphics/SVG/1.1/DTD/svg11.dtd"><svg t="1622686265137" class="icon" viewBox="0 0 1024 1024" version="1.1" xmlns="http://www.w3.org/2000/svg" p-id="12058" xmlns:xlink="http://www.w3.org/1999/xlink" width="200" height="200"><defs><style type="text/css"></style></defs><path d="M851.008884 461.117325c-51.171152-89.549516-102.342305-159.909851-108.738699-159.909851-12.792788-12.792788-31.98197-19.189182-44.774758-6.396394l-6.396394 6.396394S639.927881 377.964203 582.360334 461.117325c-70.360334 127.927881-108.738699 211.081003-108.738698 268.648549 0 63.96394 25.585576 127.927881 70.360334 179.099033 44.774758 44.774758 108.738699 70.360334 172.702639 70.360335 63.96394 0 127.927881-25.585576 172.702639-70.360335 44.774758-44.774758 70.360334-108.738699 70.360334-179.099033 0-57.567546-38.378364-140.720669-108.738698-268.648549z m-134.324275 454.143976c-95.94591 0-179.099033-83.153122-179.099033-185.495427 0-25.585576 12.792788-89.549516 102.342305-230.270185 25.585576-44.774758 57.567546-89.549516 76.756728-121.531486 19.189182 31.98197 51.171152 70.360334 76.756728 121.531486 89.549516 147.117063 102.342305 204.684609 102.342305 230.270185 0 102.342305-83.153122 185.495427-179.099033 185.495427z" p-id="12059"></path><path d="M671.909851 819.315391c-31.98197-19.189182-51.171152-51.171152-51.171152-89.549517 0-31.98197 12.792788-57.567546 38.378364-76.756728 6.396394-6.396394 12.792788-19.189182 6.396394-31.98197-12.792788-12.792788-25.585576-12.792788-31.98197-6.396394-38.378364 31.98197-57.567546 70.360334-57.567547 115.135092 0 57.567546 31.98197 102.342305 76.756729 127.927881h12.792788c6.396394 0 12.792788-6.396394 19.189182-12.792788 6.396394-6.396394 0-19.189182-12.792788-25.585576z" p-id="12060"></path><path d="M518.396394 940.846878c-31.98197 12.792788-63.96394 19.189182-95.94591 19.189182C256.144239 960.03606 128.216358 825.711785 128.216358 659.40554c0-25.585576 6.396394-76.756728 44.774758-159.909851 25.585576-57.567546 63.96394-127.927881 108.738699-204.684609 51.171152-83.153122 102.342305-159.909851 134.324275-204.684609 38.378364 51.171152 102.342305 147.117063 159.90985 249.459367 6.396394 12.792788 31.98197 19.189182 44.774759 12.792789 19.189182-12.792788 19.189182-31.98197 12.792788-44.774759C543.98197 154.090412 448.03606 19.766137 441.639666 13.369743c-6.396394-12.792788-31.98197-19.189182-44.774759-6.396394l-6.396394 6.396394S307.315391 128.504835 230.558663 256.432716c-51.171152 83.153122-83.153122 153.513457-115.135093 211.081003-31.98197 83.153122-51.171152 140.720669-51.171152 191.891821 0 51.171152 6.396394 95.94591 25.585576 140.720669 19.189182 44.774758 44.774758 83.153122 76.756728 115.135092s70.360334 57.567546 115.135093 76.756729c44.774758 19.189182 89.549516 31.98197 134.324275 31.98197 38.378364 0 83.153122-6.396394 121.531486-19.189182 19.189182-6.396394 25.585576-25.585576 19.189182-44.774758-6.396394-19.189182-25.585576-25.585576-38.378364-19.189182z" p-id="12061"></path><path d="M281.729815 518.684871c-6.396394-6.396394-19.189182-6.396394-31.98197 6.396394-31.98197 38.378364-44.774758 83.153122-44.774759 134.324275 0 44.774758 12.792788 83.153122 31.981971 121.531487 19.189182 31.98197 51.171152 63.96394 89.549516 76.756728h6.396394c6.396394 0 19.189182-6.396394 19.189182-12.792788 6.396394-12.792788 0-25.585576-12.792788-31.98197-57.567546-25.585576-95.94591-89.549516-95.94591-159.909851 0-38.378364 12.792788-76.756728 38.378364-108.738698 12.792788 0 12.792788-19.189182 0-25.585577z" p-id="12062"></path></svg>