<?xml version="1.0" standalone="no"?><!DOCTYPE svg PUBLIC "-//W3C//DTD SVG 1.1//EN" "http://www.w3.org/Graphics/SVG/1.1/DTD/svg11.dtd"><svg t="1656982993354" class="icon" viewBox="0 0 1024 1024" version="1.1" xmlns="http://www.w3.org/2000/svg" p-id="3384" width="18" height="18" xmlns:xlink="http://www.w3.org/1999/xlink"><defs><style type="text/css">@font-face { font-family: feedback-iconfont; src: url("//at.alicdn.com/t/font_1031158_u69w8yhxdu.woff2?t=1630033759944") format("woff2"), url("//at.alicdn.com/t/font_1031158_u69w8yhxdu.woff?t=1630033759944") format("woff"), url("//at.alicdn.com/t/font_1031158_u69w8yhxdu.ttf?t=1630033759944") format("truetype"); }
</style></defs><path d="M768 512v320c0 11.733333-9.6 21.333333-21.333333 21.333333H277.333333c-11.733333 0-21.333333-9.6-21.333333-21.333333V512c0-141.226667 114.773333-256 256-256s256 114.773333 256 256zM917.333333 938.666667H106.666667a21.333333 21.333333 0 1 1 0-42.666667h810.666666a21.333333 21.333333 0 1 1 0 42.666667zM512 213.333333a21.333333 21.333333 0 0 1-21.333333-21.333333V106.666667a21.333333 21.333333 0 1 1 42.666666 0v85.333333a21.333333 21.333333 0 0 1-21.333333 21.333333zM192 533.333333H106.666667a21.333333 21.333333 0 1 1 0-42.666666h85.333333a21.333333 21.333333 0 1 1 0 42.666666zM917.333333 533.333333h-85.333333a21.333333 21.333333 0 1 1 0-42.666666h85.333333a21.333333 21.333333 0 1 1 0 42.666666zM747.093333 298.24a21.312 21.312 0 0 1-15.082666-36.416l51.648-51.648a21.312 21.312 0 1 1 30.165333 30.165333l-51.648 51.648a21.248 21.248 0 0 1-15.082667 6.250667zM276.906667 298.24c-5.461333 0-10.922667-2.090667-15.104-6.250667l-51.626667-51.648a21.333333 21.333333 0 0 1 30.186667-30.165333l51.626666 51.648a21.333333 21.333333 0 0 1-15.082666 36.416z" p-id="3385" ></path></svg>