<?xml version="1.0" standalone="no"?><!DOCTYPE svg PUBLIC "-//W3C//DTD SVG 1.1//EN" "http://www.w3.org/Graphics/SVG/1.1/DTD/svg11.dtd"><svg t="1622686051143" class="icon" viewBox="0 0 1024 1024" version="1.1" xmlns="http://www.w3.org/2000/svg" p-id="4380" xmlns:xlink="http://www.w3.org/1999/xlink" width="200" height="200"><defs><style type="text/css"></style></defs><path d="M600.850325 539.765727c-2.221258-2.221258-4.442516-6.663774-4.442516-8.885033V159.930586c0-28.876356-8.885033-57.752711-26.655098-82.186551-19.991323-26.655098-46.646421-48.867679-79.965292-59.97397-66.637744-26.655098-142.160521-22.212581-204.355749 15.548807C265.440347 44.425163 247.670282 62.195228 234.342733 84.407809c-15.548807 24.433839-22.212581 51.088937-22.212581 79.965293v366.507592c0 4.442516-2.221258 8.885033-4.442516 11.106291-68.859002 66.637744-97.735358 166.59436-77.744035 259.887202 31.097614 144.381779 168.815618 239.895879 315.418655 217.683297 53.310195-6.663774 104.399132-31.097614 144.381779-68.859002 71.08026-62.195228 106.62039-157.709328 91.071583-253.223428-6.663774-59.97397-35.54013-115.505423-79.965293-157.709327z m6.663775 233.232104c-8.885033 55.531453-39.982646 106.62039-86.629067 137.718004-26.655098 17.770065-55.531453 28.876356-86.629068 33.318872-57.752711 8.885033-115.505423-8.885033-157.709327-44.425163-37.761388-28.876356-62.195228-71.08026-71.080261-117.726681-15.548807-73.301518 11.106291-148.824295 68.859003-197.691974 6.663774-4.442516 11.106291-8.885033 13.327548-13.327548 2.221258-6.663774 2.221258-13.327549 0-19.991324V164.373102c0-26.655098 13.327549-53.310195 35.540131-66.637744 28.876356-17.770065 64.416486-26.655098 97.735357-22.212581 26.655098 2.221258 51.088937 11.106291 71.080261 26.655097 19.991323 15.548807 31.097614 37.761388 31.097614 59.97397v399.826464c0 4.442516 2.221258 8.885033 4.442516 11.106291 28.876356 22.212581 51.088937 51.088937 66.637744 84.407809 15.548807 37.761388 19.991323 77.744035 13.327549 115.505423z m-139.939263-159.930586c-4.442516-2.221258-6.663774-4.442516-6.663774-8.885032V379.835141c0-15.548807-6.663774-28.876356-19.991323-35.54013-17.770065-11.106291-39.982646-13.327549-59.97397-6.663775-22.212581 4.442516-37.761388 24.433839-35.54013 48.867679v219.904556c0 4.442516-2.221258 6.663774-4.442516 8.885032-71.08026 33.318872-102.177874 119.947939-68.859003 191.0282 33.318872 71.08026 119.947939 102.177874 191.0282 68.859002 55.531453-26.655098 88.850325-84.407809 79.965293-146.603037-2.221258-53.310195-31.097614-95.5141-75.522777-115.505423zM678.59436 111.062907h155.48807c13.327549 0 22.212581 8.885033 22.212581 22.212581s-8.885033 22.212581-22.212581 22.212581h-155.48807c-13.327549 0-22.212581-8.885033-22.212581-22.212581 0-11.106291 8.885033-22.212581 22.212581-22.212581zM678.59436 222.125813h111.062907c13.327549 0 22.212581 8.885033 22.212581 22.212582s-8.885033 22.212581-22.212581 22.212581h-111.062907c-13.327549 0-22.212581-8.885033-22.212581-22.212581 0-11.106291 8.885033-22.212581 22.212581-22.212582zM678.59436 333.18872h199.913232c13.327549 0 22.212581 8.885033 22.212582 22.212582s-8.885033 22.212581-22.212582 22.212581h-199.913232c-13.327549 0-22.212581-8.885033-22.212581-22.212581 0-11.106291 8.885033-22.212581 22.212581-22.212582zM678.59436 444.251627h155.48807c13.327549 0 22.212581 8.885033 22.212581 22.212581s-8.885033 22.212581-22.212581 22.212582h-155.48807c-13.327549 0-22.212581-8.885033-22.212581-22.212582 0-11.106291 8.885033-22.212581 22.212581-22.212581z" p-id="4381"></path></svg>