<?xml version="1.0" standalone="no"?><!DOCTYPE svg PUBLIC "-//W3C//DTD SVG 1.1//EN" "http://www.w3.org/Graphics/SVG/1.1/DTD/svg11.dtd"><svg t="1622686216290" class="icon" viewBox="0 0 1024 1024" version="1.1" xmlns="http://www.w3.org/2000/svg" p-id="6539" xmlns:xlink="http://www.w3.org/1999/xlink" width="200" height="200"><defs><style type="text/css"></style></defs><path d="M716.256764 400.908223c-75.238196 0-152.649337-27.297613-230.060478-81.077984-0.407427-0.271618-0.679045-0.407427-0.950663-0.679045l-0.407427-0.271618-0.271618-0.135809c-61.521485-39.927851-119.376127-59.212732-176.823342-59.212733-3.395225 0-6.92626 0.135809-10.321485 0.271619-64.916711 2.71618-127.117241 30.42122-190.132626 84.609018l-0.543236 0.407427c-6.111406 5.160743-13.85252 8.012732-21.865252 8.012732-10.049867 0-19.556499-4.345889-25.939523-12.087002-5.839788-6.92626-8.555968-15.753846-7.876923-24.717242 0.814854-8.963395 5.024934-17.111936 11.951194-22.951724 74.015915-63.69443 151.834483-97.782493 231.554376-101.04191 4.345889-0.135809 8.691777-0.271618 13.173475-0.271618h2.037135c74.559151 0.543236 151.291247 27.840849 227.887534 81.077984 0.271618 0.135809 0.950663 0.679045 0.950663 0.679045l0.407427 0.271618c61.657294 39.927851 119.511936 59.348541 177.09496 59.348542 3.395225 0 6.92626-0.135809 10.321485-0.271618 64.916711-2.71618 127.117241-30.42122 190.132626-84.609019 0.271618-0.271618 0.543236-0.407427 0.679045-0.543236 6.111406-5.024934 13.85252-7.876923 21.729443-7.876923 10.049867 0 19.556499 4.481698 26.075332 12.087002 5.839788 6.92626 8.555968 15.753846 7.741114 24.853051-0.814854 8.963395-5.024934 17.111936-11.951194 22.951724-74.015915 63.69443-152.106101 97.782493-231.690185 101.04191-4.21008 0.135809-8.555968 0.135809-12.901857 0.135809z" p-id="6540"></path><path d="M716.256764 400.229178c-75.102387 0-152.377719-27.297613-229.788859-80.942175-0.407427-0.271618-0.679045-0.407427-0.950664-0.679045l-0.271618-0.135809-0.407427-0.271618c-61.657294-39.927851-119.647745-59.348541-177.230769-59.348542-3.395225 0-6.92626 0.135809-10.321485 0.271618-65.188329 2.71618-127.388859 30.42122-190.540053 84.744828-0.135809 0.135809-0.407427 0.271618-0.543236 0.407427-5.975597 5.024934-13.580902 7.741114-21.457825 7.741114-9.914058 0-19.149072-4.345889-25.532096-11.815384-5.703979-6.790451-8.420159-15.482228-7.741114-24.309815 0.814854-8.827586 4.889125-16.840318 11.679576-22.544297 73.880106-63.69443 151.562865-97.510875 231.146949-100.906101 4.345889-0.135809 8.691777-0.271618 13.037666-0.271618h2.037135c74.966578 0.679045 151.562865 27.840849 228.023342 81.077984 0.271618 0.135809 0.543236 0.407427 0.679046 0.543236l0.543236 0.407427c61.793103 40.06366 119.783554 59.48435 177.502387 59.484351 3.395225 0 6.92626-0.135809 10.321485-0.271618 65.05252-2.71618 127.388859-30.42122 190.540053-84.744828 0.271618-0.271618 0.407427-0.407427 0.679045-0.543236 5.975597-5.024934 13.580902-7.741114 21.322016-7.741114 9.914058 0 19.149072 4.345889 25.532096 11.951193 5.703979 6.790451 8.420159 15.482228 7.605305 24.309815-0.814854 8.827586-4.889125 16.840318-11.679576 22.408488-74.015915 63.69443-151.834483 97.646684-231.282758 100.906101-4.21008 0.271618-8.555968 0.271618-12.901857 0.271618z" p-id="6541"></path><path d="M716.256764 400.229178c-75.102387 0-152.377719-27.297613-229.788859-80.942175-0.407427-0.271618-0.679045-0.407427-0.950664-0.679045l-0.271618-0.135809-0.407427-0.271618c-61.657294-39.927851-119.647745-59.348541-177.230769-59.348542-3.395225 0-6.92626 0.135809-10.321485 0.271618-65.188329 2.71618-127.388859 30.42122-190.540053 84.744828-0.135809 0.135809-0.407427 0.271618-0.543236 0.407427-5.975597 5.024934-13.580902 7.741114-21.457825 7.741114-9.914058 0-19.149072-4.345889-25.532096-11.815384-5.703979-6.790451-8.420159-15.482228-7.741114-24.309815 0.814854-8.827586 4.889125-16.840318 11.679576-22.544297 73.880106-63.69443 151.562865-97.510875 231.146949-100.906101 4.345889-0.135809 8.691777-0.271618 13.037666-0.271618h2.037135c74.966578 0.679045 151.562865 27.840849 228.023342 81.077984 0.271618 0.135809 0.543236 0.407427 0.679046 0.543236l0.543236 0.407427c61.793103 40.06366 119.783554 59.48435 177.502387 59.484351 3.395225 0 6.92626-0.135809 10.321485-0.271618 65.05252-2.71618 127.388859-30.42122 190.540053-84.744828 0.271618-0.271618 0.407427-0.407427 0.679045-0.543236 5.975597-5.024934 13.580902-7.741114 21.322016-7.741114 9.914058 0 19.149072 4.345889 25.532096 11.951193 5.703979 6.790451 8.420159 15.482228 7.605305 24.309815-0.814854 8.827586-4.889125 16.840318-11.679576 22.408488-74.015915 63.69443-151.834483 97.646684-231.282758 100.906101-4.21008 0.271618-8.555968 0.271618-12.901857 0.271618zM716.256764 638.302387C641.018568 638.302387 563.607427 611.140584 486.196286 557.360212c-0.407427-0.271618-0.814854-0.543236-1.086472-0.814854l-0.271618-0.135809-0.407427-0.271618c-60.570822-39.248806-120.055172-59.212732-176.687533-59.212732-3.395225 0-6.92626 0.135809-10.321485 0.271618-64.916711 2.71618-127.117241 30.42122-189.996817 84.609019-0.271618 0.271618-0.543236 0.407427-0.679045 0.679045-6.111406 5.160743-13.85252 7.876923-21.729443 7.876923-10.049867 0-19.556499-4.481698-26.075332-12.222812-11.951194-14.259947-10.049867-35.717772 4.21008-47.668965 74.015915-63.69443 151.970292-97.782493 231.690185-101.04191 4.345889-0.135809 8.691777-0.271618 13.173475-0.271618h2.037135c74.559151 0.543236 151.291247 27.840849 227.887534 81.077984 0.271618 0.271618 0.543236 0.407427 0.814854 0.543236l0.543236 0.407427c61.657294 39.927851 119.511936 59.348541 177.09496 59.348541 3.395225 0 6.92626-0.135809 10.321485-0.271618 64.916711-2.71618 127.117241-30.42122 190.132626-84.609019 0.271618-0.271618 0.543236-0.407427 0.679045-0.543236 6.111406-5.160743 13.85252-7.876923 21.865252-7.876923 10.049867 0 19.556499 4.481698 26.075332 12.222812 5.839788 6.92626 8.555968 15.753846 7.741114 24.85305-0.814854 8.963395-5.024934 17.111936-11.951194 22.951724-74.151724 63.69443-152.106101 97.782493-231.690185 101.04191h-13.309284z" p-id="6542"></path><path d="M716.256764 637.623342c-75.102387 0-152.377719-27.161804-229.65305-80.942175-0.407427-0.271618-0.814854-0.543236-1.086473-0.814854l-0.407427-0.271618-0.271618-0.135809c-60.706631-39.384615-120.32679-59.348541-177.09496-59.348541-3.395225 0-6.92626 0.135809-10.321485 0.271618-65.05252 2.71618-127.388859 30.42122-190.540053 84.744827-0.271618 0.271618-0.407427 0.407427-0.679045 0.543237-5.975597 5.024934-13.580902 7.741114-21.322016 7.741114-9.914058 0-19.149072-4.345889-25.532096-11.951194-11.679576-13.988329-9.914058-35.038727 4.074271-46.718302C137.302918 467.183024 215.121485 433.230769 294.70557 429.971353c4.345889-0.135809 8.691777-0.271618 13.037666-0.271618h2.037135c74.423342 0.543236 151.019629 27.70504 227.480106 80.942175 0.271618 0.271618 0.543236 0.407427 0.814855 0.543236l0.135809 0.135809 0.407427 0.271618c61.793103 40.06366 119.783554 59.48435 177.502387 59.48435 3.395225 0 6.92626-0.135809 10.321485-0.271618 65.05252-2.71618 127.388859-30.42122 190.540053-84.744828 0.271618-0.271618 0.543236-0.407427 0.679045-0.543236 5.975597-5.024934 13.580902-7.741114 21.322016-7.741114 9.914058 0 19.149072 4.345889 25.532096 11.951194 5.703979 6.790451 8.420159 15.482228 7.605305 24.309814-0.814854 8.827586-4.889125 16.704509-11.679576 22.408488-74.015915 63.69443-151.834483 97.646684-231.282758 100.906101-4.21008 0.271618-8.555968 0.271618-12.901857 0.271618z" p-id="6543"></path><path d="M716.256764 637.623342c-75.102387 0-152.377719-27.161804-229.65305-80.942175-0.407427-0.271618-0.814854-0.543236-1.086473-0.814854l-0.407427-0.271618-0.271618-0.135809c-60.706631-39.384615-120.32679-59.348541-177.09496-59.348541-3.395225 0-6.92626 0.135809-10.321485 0.271618-65.05252 2.71618-127.388859 30.42122-190.540053 84.744827-0.271618 0.271618-0.407427 0.407427-0.679045 0.543237-5.975597 5.024934-13.580902 7.741114-21.322016 7.741114-9.914058 0-19.149072-4.345889-25.532096-11.951194-11.679576-13.988329-9.914058-35.038727 4.074271-46.718302C137.302918 467.183024 215.121485 433.230769 294.70557 429.971353c4.345889-0.135809 8.691777-0.271618 13.037666-0.271618h2.037135c74.423342 0.543236 151.019629 27.70504 227.480106 80.942175 0.271618 0.271618 0.543236 0.407427 0.814855 0.543236l0.135809 0.135809 0.407427 0.271618c61.793103 40.06366 119.783554 59.48435 177.502387 59.48435 3.395225 0 6.92626-0.135809 10.321485-0.271618 65.05252-2.71618 127.388859-30.42122 190.540053-84.744828 0.271618-0.271618 0.543236-0.407427 0.679045-0.543236 5.975597-5.024934 13.580902-7.741114 21.322016-7.741114 9.914058 0 19.149072 4.345889 25.532096 11.951194 5.703979 6.790451 8.420159 15.482228 7.605305 24.309814-0.814854 8.827586-4.889125 16.704509-11.679576 22.408488-74.015915 63.69443-151.834483 97.646684-231.282758 100.906101-4.21008 0.271618-8.555968 0.271618-12.901857 0.271618zM716.256764 875.832361c-75.238196 0-152.649337-27.297613-230.196287-81.077984-0.407427-0.271618-0.679045-0.407427-0.950663-0.679045l-0.271618-0.135809-0.407427-0.271618c-61.521485-39.927851-119.240318-59.212732-176.823342-59.212733-3.395225 0-6.92626 0.135809-10.321485 0.271618-64.916711 2.71618-127.117241 30.42122-189.996817 84.609019-0.271618 0.271618-0.543236 0.407427-0.679045 0.543236-6.111406 5.160743-13.85252 7.876923-21.865252 7.876923-10.049867 0-19.556499-4.481698-26.075332-12.222812-5.839788-6.92626-8.555968-15.753846-7.741114-24.85305 0.814854-8.963395 5.024934-17.111936 11.951194-22.951724 74.015915-63.69443 151.834483-97.782493 231.554376-101.04191 5.160743-0.271618 10.321485-0.271618 15.21061-0.271618h5.839788l5.160743 0.271618c71.163926 2.987798 144.093369 30.149602 217.022812 80.806366 0.271618 0.271618 0.543236 0.407427 0.814854 0.543236l0.271618 0.135809 0.407427 0.271618c61.521485 39.927851 119.511936 59.348541 176.959151 59.348541 3.531034 0 6.92626-0.135809 10.321485-0.271618 64.916711-2.71618 127.25305-30.42122 190.268435-84.744827l0.271618-0.271618c6.111406-5.160743 13.85252-8.012732 21.865252-8.012732 10.049867 0 19.42069 4.345889 25.939523 11.951193 5.839788 6.92626 8.691777 15.753846 8.012732 24.717242-0.679045 9.099204-4.889125 17.247745-11.815385 23.087533C886.9687 837.941645 809.014324 871.893899 729.29443 875.289125c-4.345889 0.407427-8.691777 0.543236-13.037666 0.543236z" p-id="6544"></path><path d="M716.256764 875.153316c-75.102387 0-152.377719-27.297613-229.788859-80.942175-0.407427-0.271618-0.679045-0.407427-0.950664-0.679046l-0.271618-0.135809-0.407427-0.271618c-61.657294-39.927851-119.511936-59.348541-177.230769-59.348541-3.395225 0-6.92626 0.135809-10.321485 0.271618-65.05252 2.71618-127.388859 30.42122-190.404244 84.744828-0.271618 0.271618-0.543236 0.407427-0.679045 0.543236-5.975597 5.024934-13.580902 7.741114-21.322016 7.741114-9.914058 0-19.149072-4.345889-25.532096-11.951194-5.703979-6.790451-8.420159-15.482228-7.605305-24.309814 0.814854-8.827586 4.889125-16.704509 11.679576-22.408488 73.880106-63.69443 151.698674-97.646684 231.146949-100.906101 5.160743-0.271618 10.185676-0.271618 15.21061-0.271618h5.56817l5.160743 0.271618c71.163926 2.851989 144.093369 30.013793 216.887002 80.670557 0.407427 0.271618 0.543236 0.407427 0.814855 0.679045l0.135809 0.135809 0.407427 0.271618c61.657294 40.06366 119.783554 59.48435 177.366578 59.484351 3.531034 0 6.92626-0.135809 10.321485-0.271618 65.188329-2.71618 127.524668-30.42122 190.675862-84.880637l0.271618-0.271618c5.975597-5.024934 13.580902-7.876923 21.457825-7.876923 9.778249 0 19.013263 4.21008 25.396287 11.679575 5.703979 6.790451 8.555968 15.346419 7.741114 24.174006-0.679045 8.827586-4.889125 16.840318-11.679576 22.680106-73.880106 63.558621-151.698674 97.510875-231.282758 100.906101-4.074271 0.135809-8.420159 0.271618-12.766048 0.271618z" p-id="6545"></path><path d="M716.256764 875.153316c-75.102387 0-152.377719-27.297613-229.788859-80.942175-0.407427-0.271618-0.679045-0.407427-0.950664-0.679046l-0.271618-0.135809-0.407427-0.271618c-61.657294-39.927851-119.511936-59.348541-177.230769-59.348541-3.395225 0-6.92626 0.135809-10.321485 0.271618-65.05252 2.71618-127.388859 30.42122-190.404244 84.744828-0.271618 0.271618-0.543236 0.407427-0.679045 0.543236-5.975597 5.024934-13.580902 7.741114-21.322016 7.741114-9.914058 0-19.149072-4.345889-25.532096-11.951194-5.703979-6.790451-8.420159-15.482228-7.605305-24.309814 0.814854-8.827586 4.889125-16.704509 11.679576-22.408488 73.880106-63.69443 151.698674-97.646684 231.146949-100.906101 5.160743-0.271618 10.185676-0.271618 15.21061-0.271618h5.56817l5.160743 0.271618c71.163926 2.851989 144.093369 30.013793 216.887002 80.670557 0.407427 0.271618 0.543236 0.407427 0.814855 0.679045l0.135809 0.135809 0.407427 0.271618c61.657294 40.06366 119.783554 59.48435 177.366578 59.484351 3.531034 0 6.92626-0.135809 10.321485-0.271618 65.188329-2.71618 127.524668-30.42122 190.675862-84.880637l0.271618-0.271618c5.975597-5.024934 13.580902-7.876923 21.457825-7.876923 9.778249 0 19.013263 4.21008 25.396287 11.679575 5.703979 6.790451 8.555968 15.346419 7.741114 24.174006-0.679045 8.827586-4.889125 16.840318-11.679576 22.680106-73.880106 63.558621-151.698674 97.510875-231.282758 100.906101-4.074271 0.135809-8.420159 0.271618-12.766048 0.271618z" p-id="6546"></path></svg>